<svg version="1.1" xmlns="http://www.w3.org/2000/svg" xmlns:xlink="http://www.w3.org/1999/xlink" width="28.89271" height="17.84081" viewBox="0,0,28.89271,17.84081"><g transform="translate(-225.55365,-145.17837)"><g data-paper-data="{&quot;isPaintingLayer&quot;:true}" fill-rule="nonzero" stroke-width="0" stroke-linecap="butt" stroke-linejoin="miter" stroke-miterlimit="10" stroke-dasharray="" stroke-dashoffset="0" style="mix-blend-mode: normal"><g><g><path d="M226.39208,162.46951c-0.33594,-2.64905 -1.23683,-11.35308 1.46924,-12.09372c2.70608,-0.74064 6.56957,7.02148 7.70009,9.44062c0.20688,0.44269 0.00543,0.76582 -0.4269,0.85019c-0.98269,0.19178 -2.76064,0.55137 -4.04502,0.92596c-1.28438,0.37459 -2.94923,1.00524 -3.88249,1.36783c-0.41059,0.15952 -0.75345,-0.00611 -0.81493,-0.49088z" data-paper-data="{&quot;index&quot;:null}" fill="#ff0000" stroke="#000000"/><path d="M229.21562,148.33733c0.28668,0.99077 -0.28411,2.02634 -1.27488,2.31301c-0.99077,0.28668 -2.02634,-0.2841 -2.31302,-1.27487c-0.28668,-0.99077 0.28411,-2.02634 1.27488,-2.31301c0.99076,-0.28667 2.02634,0.2841 2.31302,1.27487z" fill="#fffb00" stroke="none"/></g><g data-paper-data="{&quot;index&quot;:null}"><path d="M253.60794,162.46951c-0.06148,0.48477 -0.40434,0.6504 -0.81492,0.49088c-0.93326,-0.36259 -2.59811,-0.99324 -3.88249,-1.36783c-1.28438,-0.37459 -3.06234,-0.73418 -4.04503,-0.92596c-0.43233,-0.08437 -0.63378,-0.4075 -0.4269,-0.85019c1.13052,-2.41914 4.99402,-10.18125 7.7001,-9.44061c2.70607,0.74064 1.80517,9.44467 1.46924,12.09371z" data-paper-data="{&quot;index&quot;:null}" fill="#ff0000" stroke="#000000"/><path d="M253.09741,147.06246c0.99077,0.28668 1.56155,1.32224 1.27488,2.31301c-0.28668,0.99077 -1.32224,1.56155 -2.31301,1.27487c-0.99077,-0.28668 -1.56155,-1.32224 -1.27488,-2.31301c0.28668,-0.99077 1.32225,-1.56154 2.31301,-1.27487z" fill="#fffb00" stroke="none"/></g><g><path d="M240.00001,148.62762c2.8053,0.04068 4.35913,8.57079 4.77272,11.20883c0.07568,0.48276 -0.20763,0.73716 -0.64638,0.69804c-0.99727,-0.08892 -2.80511,-0.23767 -4.143,-0.23482c-1.33788,0.00285 -3.11242,0.14591 -4.10969,0.23482c-0.43875,0.03912 -0.72206,-0.21529 -0.64638,-0.69804c0.41359,-2.63804 1.96742,-11.24951 4.77273,-11.20883z" data-paper-data="{&quot;index&quot;:null}" fill="#ff0000" stroke="#000000"/><path d="M241.86754,147.0459c0,1.03141 -0.83612,1.86753 -1.86753,1.86753c-1.03141,0 -1.86753,-0.83612 -1.86753,-1.86753c0,-1.03141 0.83612,-1.86753 1.86753,-1.86753c1.0314,0 1.86753,0.83612 1.86753,1.86753z" fill="#fffb00" stroke="none"/></g></g></g></g></svg>