<svg version="1.1" xmlns="http://www.w3.org/2000/svg" xmlns:xlink="http://www.w3.org/1999/xlink" width="202.88531" height="202.88531" viewBox="0,0,202.88531,202.88531"><g transform="translate(-138.55735,-78.55735)"><g data-paper-data="{&quot;isPaintingLayer&quot;:true}" fill-rule="nonzero" stroke-linejoin="miter" stroke-miterlimit="10" stroke-dasharray="" stroke-dashoffset="0" style="mix-blend-mode: normal"><path d="M138.55736,281.44266v-202.88531h202.88531v202.88531z" data-paper-data="{&quot;index&quot;:null}" fill="#000000" stroke="none" stroke-width="0" stroke-linecap="butt"/><path d="M171.58059,171.26719c0,-17.71517 14.36099,-32.07616 32.07616,-32.07616c17.71517,0 32.07616,14.36099 32.07616,32.07616c0,17.71517 -14.36099,32.07615 -32.07616,32.07615c-17.71517,0 -32.07616,-14.36099 -32.07616,-32.07615z" fill="#f8faee" stroke="#000000" stroke-width="2" stroke-linecap="butt"/><path d="M276.34326,202.99149c-17.71517,0 -32.07616,-14.36099 -32.07616,-32.07616c0,-17.71517 14.36098,-32.07616 32.07616,-32.07616c17.71517,0 32.07616,14.36099 32.07616,32.07616c0,17.71517 -14.36099,32.07616 -32.07616,32.07616z" fill="#f8faee" stroke="#000000" stroke-width="2" stroke-linecap="butt"/><path d="M271.51031,168.63181c0,0.75352 0.42383,0.97926 0.60086,2.05896c0.10779,0.65746 0.04537,2.23624 -0.03211,2.69217c-0.16831,0.99111 -0.87512,2.45906 -1.30391,3.48905c-0.78378,1.88268 -1.51712,3.26638 -2.54691,4.41978c-1.0277,1.15099 -2.67032,1.51969 -4.07924,2.02153c-1.54613,0.55071 -2.8875,1.17749 -4.64442,1.17749c-1.71136,0 -3.74062,-0.9314 -5.26079,-1.62578c-4.61501,-2.10806 -7.62036,-6.54419 -7.62036,-12.44816c0,-0.71985 -0.29772,-1.12106 -0.34909,-1.76681c-0.14883,-1.87162 -0.07888,-3.76512 0.77857,-5.4704c1.03397,-2.05635 2.56333,-4.07098 4.63817,-5.43593c2.08346,-1.37061 4.71481,-2.08733 6.93807,-2.08733c2.03636,0 5.27652,0.76482 6.91133,1.78966c1.39302,0.87325 1.24365,1.89769 2.2674,3.20549c0.81695,1.04361 2.11337,2.25421 2.60814,3.61385c0.31903,0.87671 0.97245,1.61477 1.16854,2.25692c0.18838,0.61692 -0.07426,1.13478 -0.07426,2.10954z" fill="#000000" stroke="none" stroke-width="0" stroke-linecap="butt"/><path d="M176.18633,171.0317c0,-0.97476 -0.26264,-1.49262 -0.07426,-2.10954c0.19608,-0.64216 0.84951,-1.38021 1.16854,-2.25692c0.49477,-1.35964 1.79119,-2.57024 2.60814,-3.61385c1.02376,-1.30779 0.87439,-2.33224 2.2674,-3.20549c1.63481,-1.02484 4.87497,-1.78966 6.91133,-1.78966c2.22326,0 4.85462,0.71672 6.93807,2.08733c2.07484,1.36495 3.6042,3.37958 4.63817,5.43593c0.85745,1.70528 0.9274,3.59878 0.77857,5.4704c-0.05137,0.64575 -0.34909,1.04696 -0.34909,1.76681c0,5.90397 -3.00534,10.34009 -7.62036,12.44816c-1.52017,0.69438 -3.54943,1.62578 -5.26079,1.62578c-1.75693,0 -3.09829,-0.62679 -4.64442,-1.17749c-1.40892,-0.50184 -3.05155,-0.87054 -4.07924,-2.02153c-1.0298,-1.15339 -1.76314,-2.5371 -2.54692,-4.41977c-0.42878,-1.02998 -1.13559,-2.49793 -1.3039,-3.48905c-0.07747,-0.45593 -0.13989,-2.03471 -0.03211,-2.69217c0.17703,-1.0797 0.60086,-1.30544 0.60086,-2.05896z" fill="#000000" stroke="none" stroke-width="0" stroke-linecap="butt"/><path d="M253.08184,232.98142l28.3128,-10.79552" data-paper-data="{&quot;index&quot;:null}" fill="none" stroke="#ffffff" stroke-width="2" stroke-linecap="round"/><path d="M267.4025,116.79742c0,0 13.59578,-3.36539 17.93659,-1.17734c4.54536,2.29115 8.75017,14.6292 8.75017,14.6292" fill="none" stroke="#ffffff" stroke-width="2" stroke-linecap="round"/></g></g></svg>