<svg version="1.1" xmlns="http://www.w3.org/2000/svg" xmlns:xlink="http://www.w3.org/1999/xlink" width="38.64276" height="17.1961" viewBox="0,0,38.64276,17.1961"><g transform="translate(-220.67862,-171.40195)"><g data-paper-data="{&quot;isPaintingLayer&quot;:true}" fill-rule="nonzero" stroke="#000000" stroke-width="0" stroke-linecap="butt" stroke-linejoin="miter" stroke-miterlimit="10" stroke-dasharray="" stroke-dashoffset="0" style="mix-blend-mode: normal"><g><path d="M250.00598,188.59804c0,0 1.29112,-3.62 2.20296,-5.88413c0.91184,-2.26413 2.352,-5.0267 2.352,-5.0267c0,0 1.04001,-0.33462 2.65515,0.25321c1.61514,0.58783 2.10529,1.46022 2.10529,1.46022c0,0 -2.05686,2.64783 -2.96852,4.14815c-0.96393,1.58633 -2.66698,5.04926 -2.66698,5.04926z" data-paper-data="{&quot;index&quot;:null}" fill="#9a00ff"/><path d="M242.00598,188.59804l0.86266,-11.37878c0,0 0.94647,-0.58175 3.11669,-0.58012c2.17022,0.00163 2.95144,0.76791 2.95144,0.76791l-3.09704,11.191z" data-paper-data="{&quot;index&quot;:null}" fill="#2100ff"/><path d="M226.31412,188.59805c0,0 -1.70305,-3.46293 -2.66698,-5.04926c-0.91166,-1.50032 -2.96852,-4.14815 -2.96852,-4.14815c0,0 0.49015,-0.87239 2.10529,-1.46022c1.61514,-0.58783 2.65515,-0.25321 2.65515,-0.25321c0,0 1.44016,2.76257 2.352,5.0267c0.91184,2.26413 2.20296,5.88413 2.20296,5.88413z" fill="#ff0000"/><path d="M234.16027,188.59804l-3.09704,-11.191c0,0 0.78122,-0.76628 2.95144,-0.76791c2.17022,-0.00163 3.11669,0.58012 3.11669,0.58012l0.86266,11.37878z" fill="#fcfc00"/><path d="M245.7752,188.59804c0,0 1.28026,-5.18796 2.34615,-8.77275c1.06589,-3.58479 2.73719,-7.36885 2.73719,-7.36885c0,0 0.85398,-0.67761 3.20739,-0.20834c2.32282,0.46317 2.64006,1.53715 2.64006,1.53715c0,0 -2.39418,4.37153 -3.53943,6.90671c-1.14525,2.53517 -3.07524,7.90608 -3.07524,7.90608z" data-paper-data="{&quot;index&quot;:null}" fill="#5c0099"/><path d="M229.90867,188.59804c0,0 -1.92999,-5.37091 -3.07524,-7.90608c-1.14525,-2.53518 -3.53943,-6.90671 -3.53943,-6.90671c0,0 0.31724,-1.07398 2.64006,-1.53715c2.35341,-0.46927 3.20739,0.20834 3.20739,0.20834c0,0 1.6713,3.78406 2.73719,7.36885c1.06589,3.58479 2.34615,8.77275 2.34615,8.77275z" fill="#ff9900"/><path d="M237.90867,188.59804l-1.23006,-16.35125c0,0 0.77878,-0.84321 3.17852,-0.84484c2.39974,-0.00163 3.36124,0.82372 3.36124,0.82372l-1.07051,16.37237z" fill="#40ff00"/></g></g></g></svg>