<svg version="1.1" xmlns="http://www.w3.org/2000/svg" xmlns:xlink="http://www.w3.org/1999/xlink" width="89.28812" height="129.47403" viewBox="0,0,89.28812,129.47403"><g transform="translate(-195.35594,-114.27741)"><g data-paper-data="{&quot;isPaintingLayer&quot;:true}" fill-rule="nonzero" stroke-linecap="butt" stroke-linejoin="miter" stroke-miterlimit="10" stroke-dasharray="" stroke-dashoffset="0" style="mix-blend-mode: normal"><path d="M269.47197,175.68576c-4.316,0.78534 -8.27701,2.2684 -12.62341,3.23041c-2.87895,0.63721 -6.41028,1.45398 -7.71751,4.71787c-0.71469,1.78444 0.3811,5.22039 0.58812,6.46051c0.5392,3.22993 0.98869,6.24544 1.8235,9.44309c0.40138,1.53745 1.02966,3.02218 1.28484,4.59054c0.1257,0.77259 -0.73978,1.82077 -0.15671,2.343c0.57891,0.51851 1.52788,-0.28556 2.29128,-0.43115c1.92831,-0.36775 3.87415,-0.6499 5.8256,-0.86317c3.61939,-0.51632 7.92939,-0.35165 10.97924,-2.7696c2.0005,-1.58602 1.37818,-5.14351 1.2166,-7.29649c-0.48191,-6.42107 -1.49589,-12.99762 -3.40571,-19.14803zM273.84863,173.14436l0.50582,1.34067c2.02434,6.5661 3.95786,14.70203 3.84212,21.821c0.31184,-3.97087 0.60844,-7.94474 0.91987,-11.92033c1.0712,-7.68999 0.07478,-15.32732 -0.18972,-23.04619c-0.0728,-2.12458 -0.37762,-4.25139 -0.24213,-6.3729c0.02885,-0.45174 0.66058,-0.80552 0.54592,-1.24343c-0.07626,-0.29125 -0.45362,0.41607 -0.7335,0.52701c-1.03184,0.409 -2.08228,0.79779 -3.16972,1.02016c-0.97698,0.19978 -6.84085,0.41165 -7.23285,0.42287c-7.88756,0.22588 -15.70433,0.29814 -23.57109,0.88542c-12.51178,0.93376 -25.13256,2.14865 -37.68157,2.41881c0.05887,2.53708 0.12533,5.08136 0.02526,7.59607c-0.71378,17.9365 -5.53887,35.57079 -5.86695,53.5687c0.06212,3.21548 -0.56328,6.36976 -0.55688,9.53041c0.00545,2.69076 1.00918,2.68101 0.38514,5.59146c-0.09453,0.44088 -0.85082,0.57207 -0.88672,1.02154c-0.02524,0.31595 0.52371,-0.4393 0.84062,-0.44441c1.57414,-0.02539 3.13872,0.25165 4.70968,0.3549c4.23997,0.27866 8.47048,0.54566 12.7132,0.72886c6.7575,0.2918 13.509,0.2622 20.26616,0.52561c6.19554,0.24152 12.32673,1.21685 18.51875,0.69488c4.62765,-0.13322 9.1388,-0.20098 13.73883,0.33553c1.08081,0.12606 2.75458,1.17211 3.25783,0.20734c1.04969,-2.01235 0.37507,-4.52383 0.57123,-6.78501c0.4201,-4.8427 0.48555,-5.22759 1.1151,-10.04409c0.89482,-6.84593 1.54982,-13.70914 2.12128,-20.58298c-0.32046,1.78427 -0.98544,3.29377 -2.68059,4.82569c-3.7168,3.3589 -9.0942,3.35848 -13.70248,4.01587c-3.18521,0.34497 -9.31232,2.23912 -12.05136,0.08006c-1.3579,-1.07037 -0.94114,-3.32755 -1.41032,-4.99172c-1.34765,-4.78008 -2.386,-9.45744 -3.16857,-14.34787c-0.53457,-3.34061 -1.55923,-5.8311 -0.2866,-9.11544c1.88174,-4.85627 6.85656,-6.73925 11.33572,-7.74187c5.20241,-1.16451 9.87915,-2.98051 15.22046,-3.62657c0,0 2.48244,-0.29576 2.7782,2.18668c0.02405,0.20187 0.02973,0.38927 0.01987,0.56324zM206.64859,154.00783c12.48497,-0.24134 25.05629,-1.48646 37.50265,-2.41534c9.29873,-0.69376 18.5778,-0.58831 27.89347,-1.07439c3.0946,-0.16147 7.90843,-2.95598 10.73764,-0.31409c0.81565,0.76164 1.08375,7.17953 1.12766,8.32959c0.33512,8.77639 1.36411,17.64703 0.17772,26.38718c-1.10548,14.23597 -2.50561,28.33498 -4.08091,42.51867c-0.42742,3.84845 0.40191,11.49861 -2.34639,14.6606c-0.91968,1.05811 -2.51531,1.33511 -3.89406,1.58899c-1.49504,0.27529 -4.47999,-0.44202 -6.10049,-0.56675c-3.45049,-0.26557 -6.94667,-0.06221 -10.39944,0.03554c-6.36147,0.51118 -12.62561,-0.44409 -18.9876,-0.69094c-9.39566,-0.36456 -18.74853,-0.33572 -28.13597,-0.97971c-1.09269,-0.07496 -9.29674,-0.47313 -10.24677,-0.70511c-1.50328,-0.36708 -3.37312,-0.61273 -4.23736,-1.89635c-0.76549,-1.13696 0.15721,-2.73718 0.19524,-4.10729c0.04707,-1.6959 -0.41221,-3.3765 -0.41076,-5.07305c0.00273,-3.1872 0.62386,-6.30776 0.55687,-9.54188c0.25227,-12.23764 2.28288,-24.38453 3.68002,-36.53803c0.65819,-5.72551 1.96625,-11.45704 2.19061,-17.22372c0.09269,-2.38236 0.03427,-4.79115 -0.02259,-7.1947c-0.33092,-0.15683 -0.66306,-0.41872 -0.97471,-0.8297c-1.51057,-1.99203 0.48146,-3.5026 0.48146,-3.5026l0.43066,-0.18569c0.03479,-0.47901 0.31065,-2.39193 2.49766,-2.38958c1.56026,0.00167 2.14571,0.97607 2.36539,1.70838z" fill="#000000" stroke="none" stroke-width="0.5"/><path d="M269.60207,175.91903c1.90982,6.15041 2.94694,12.78655 3.42886,19.20763c0.16159,2.15298 0.77079,5.73097 -1.22971,7.31699c-3.04985,2.41795 -7.39545,2.26688 -11.01484,2.7832c-1.95145,0.21327 -3.91518,0.4916 -5.84349,0.85935c-0.76341,0.14559 -1.71739,0.94724 -2.2963,0.42873c-0.58307,-0.52223 0.27964,-1.57207 0.15394,-2.34466c-0.25518,-1.56836 -0.89413,-3.06229 -1.29551,-4.59974c-0.83481,-3.19765 -1.29642,-6.25063 -1.83563,-9.48056c-0.20702,-1.24011 -1.29542,-4.69798 -0.58073,-6.48242c1.30722,-3.26389 4.86436,-4.10132 7.74331,-4.73853c4.34639,-0.96201 8.34769,-2.44193 12.66369,-3.22727z" data-paper-data="{&quot;noHover&quot;:false,&quot;origItem&quot;:[&quot;Path&quot;,{&quot;applyMatrix&quot;:true,&quot;selected&quot;:true,&quot;segments&quot;:[[[269.47197,175.68576],[0,0],[-4.316,0.78534],7],[[256.84856,178.91617],[4.34639,-0.96201],[-2.87895,0.63721],7],[[249.13106,183.63404],[1.30722,-3.26389],[-0.71469,1.78444],7],[[249.71918,190.09455],[-0.20702,-1.24011],[0.5392,3.22993],7],[[251.54268,199.53764],[-0.83481,-3.19765],[0.40138,1.53745],7],[[252.82752,204.12818],[-0.25518,-1.56836],[0.1257,0.77259],7],[[252.6708,206.47118],[-0.58307,-0.52223],[0.57891,0.51851],7],[[254.96208,206.04003],[-0.76341,0.14559],[1.92831,-0.36775],7],[[260.78768,205.17686],[-1.95145,0.21327],[3.61939,-0.51632],7],[[271.76692,202.40726],[-3.04985,2.41795],[2.0005,-1.58602],7],[[272.98352,195.11077],[0.16159,2.15298],[-0.48191,-6.42107],7],[[269.57781,175.96275],[1.90982,6.15041],[0,0],7]],&quot;closed&quot;:true}]}" fill="#ffffff" stroke="none" stroke-width="0.5"/><path d="M273.78763,172.60954c-0.29576,-2.48244 -2.77558,-2.18322 -2.77558,-2.18322c-5.34131,0.64606 -10.00812,2.47119 -15.21053,3.63571c-4.47915,1.00262 -9.43777,2.89302 -11.31951,7.74929c-1.27263,3.28433 -0.20305,5.68842 0.33152,9.02903c0.78257,4.89043 1.81675,9.64692 3.1644,14.427c0.46918,1.66417 -0.00017,3.83643 1.35773,4.9068c2.73904,2.15906 8.85004,0.2791 12.03525,-0.06587c4.60828,-0.65739 9.97839,-0.64266 13.69519,-4.00156c1.69514,-1.53191 2.45708,-3.01802 2.77754,-4.80229c-0.57146,6.87384 -1.23617,13.7594 -2.13099,20.60533c-0.62956,4.81651 -0.70091,5.20781 -1.12101,10.05051c-0.19615,2.26118 0.47494,4.77559 -0.57475,6.78794c-0.50325,0.96477 -2.17893,-0.0799 -3.25974,-0.20596c-4.60003,-0.53651 -9.12206,-0.46311 -13.74971,-0.32989c-6.19202,0.52197 -12.34366,-0.45033 -18.53919,-0.69185c-6.75716,-0.26341 -13.52963,-0.23987 -20.28713,-0.53167c-4.24272,-0.18321 -8.48198,-0.45629 -12.72195,-0.73495c-1.57095,-0.10325 -3.13797,-0.38254 -4.71211,-0.35715c-0.31691,0.00511 -0.86603,0.76019 -0.84079,0.44424c0.0359,-0.44947 0.79213,-0.58072 0.88666,-1.0216c0.62404,-2.91045 -0.38239,-2.90363 -0.38783,-5.59439c-0.0064,-3.16065 0.61468,-6.32086 0.55256,-9.53634c0.32808,-17.99791 5.15728,-35.69073 5.87106,-53.62723c0.10007,-2.51471 0.03762,-5.06324 -0.02125,-7.60032c12.54902,-0.27016 25.20859,-1.4985 37.72037,-2.43226c7.86676,-0.58727 15.70729,-0.65101 23.59485,-0.87689c0.39199,-0.01123 6.26019,-0.21977 7.23717,-0.41955c1.08744,-0.22237 2.13905,-0.61011 3.1709,-1.01912c0.27988,-0.11094 0.65736,-0.81814 0.73362,-0.5269c0.11465,0.4379 -0.51678,0.79196 -0.54563,1.2437c-0.1355,2.12151 0.17245,4.2515 0.24525,6.37609c0.26449,7.71887 1.27175,15.37585 0.20054,23.06584c-0.31143,3.97559 -0.70609,7.9617 -1.01793,11.93257c0.11574,-7.11898 -1.81025,-15.22702 -3.83459,-21.79311l-0.50485,-1.33917c0.00986,-0.17396 0.00452,-0.36088 -0.01953,-0.56274z" data-paper-data="{&quot;noHover&quot;:false,&quot;origItem&quot;:[&quot;Path&quot;,{&quot;applyMatrix&quot;:true,&quot;selected&quot;:true,&quot;segments&quot;:[[[273.84863,173.14436],[0.00986,-0.17396],[0,0],7],[[274.35445,174.48502],[0,0],[2.02434,6.5661],7],[[278.19658,196.30603],[0.11574,-7.11898],[0.31184,-3.97087],7],[[279.11644,184.38569],[-0.31143,3.97559],[1.0712,-7.68999],7],[[278.92673,161.3395],[0.26449,7.71887],[-0.0728,-2.12458],7],[[278.6846,154.9666],[-0.1355,2.12151],[0.02885,-0.45174],7],[[279.23052,153.72317],[0.11465,0.4379],[-0.07626,-0.29125],7],[[278.49702,154.25018],[0.27988,-0.11094],[-1.03184,0.409],7],[[275.3273,155.27034],[1.08744,-0.22237],[-0.97698,0.19978],7],[[268.09445,155.69321],[0.39199,-0.01123],[-7.88756,0.22588],7],[[244.52336,156.57863],[7.86676,-0.58727],[-12.51178,0.93376],7],[[206.84179,158.99744],[12.54902,-0.27016],[0.05887,2.53708],7],[[206.86705,166.59351],[0.10007,-2.51471],[-0.71378,17.9365],7],[[201.00009,220.16221],[0.32808,-17.99791],[0.06212,3.21548],7],[[200.44321,229.69262],[-0.0064,-3.16065],[0.00545,2.69076],7],[[200.82835,235.28409],[0.62404,-2.91045],[-0.09453,0.44088],7],[[199.94163,236.30563],[0.0359,-0.44947],[-0.02524,0.31595],7],[[200.78225,235.86122],[-0.31691,0.00511],[1.57414,-0.02539],7],[[205.49193,236.21612],[-1.57095,-0.10325],[4.23997,0.27866],7],[[218.20513,236.94498],[-4.24272,-0.18321],[6.7575,0.2918],7],[[238.47129,237.47059],[-6.75716,-0.26341],[6.19554,0.24152],7],[[256.99004,238.16548],[-6.19202,0.52197],[4.62765,-0.13322],7],[[270.72887,238.50101],[-4.60003,-0.53651],[1.08081,0.12606],7],[[273.9867,238.70834],[-0.50325,0.96477],[1.04969,-2.01235],7],[[274.55793,231.92333],[-0.19615,2.26118],[0.4201,-4.8427],7],[[275.67303,221.87924],[-0.62956,4.81651],[0.89482,-6.84593],7],[[277.79431,201.29626],[-0.57146,6.87384],[-0.32046,1.78427],7],[[275.11372,206.12195],[1.69514,-1.53191],[-3.7168,3.3589],7],[[261.41124,210.13782],[4.60828,-0.65739],[-3.18521,0.34497],7],[[249.35988,210.21789],[2.73904,2.15906],[-1.3579,-1.07037],7],[[247.94956,205.22617],[0.46918,1.66417],[-1.34765,-4.78008],7],[[244.78099,190.8783],[0.78257,4.89043],[-0.53457,-3.34061],7],[[244.49439,181.76287],[-1.27263,3.28433],[1.88174,-4.85627],7],[[255.83011,174.021],[-4.47915,1.00262],[5.20241,-1.16451],7],[[271.05056,170.39443],[-5.34131,0.64606],[0,0],7],[[273.82877,172.58112],[-0.29576,-2.48244],[0.02405,0.20187],7]],&quot;closed&quot;:true}]}" fill="#ffffff" stroke="none" stroke-width="0.5"/><path d="M226.8397,181.72253c-3.63714,0.55005 -7.45411,0.66453 -11.01923,1.21202c-1.01464,0.15582 -2.03503,0.32482 -3.06154,0.33311c-0.63059,0.00509 -1.52066,-0.81899 -1.86897,-0.29329c-0.38561,0.582 0.66718,1.25632 0.77376,1.94629c0.21663,1.40249 0.14336,2.83485 0.18387,4.2534c0.10801,3.78163 0.23531,7.57291 0.32421,11.35362c0.04372,1.85948 0.04446,3.72121 0.15773,5.57775c0.10036,1.64491 0.4025,3.29473 0.26382,4.93685c-0.03204,0.37938 -1.11384,0.98078 -0.75325,0.85859c0.51971,-0.17611 0.74079,-0.92872 1.27881,-1.03668c1.66413,-0.33393 3.39082,-0.16037 5.08623,-0.24055c5.41442,-0.49815 10.59128,-0.34607 15.90039,-1.8249c1.70102,-0.47381 3.58961,-0.65803 5.01886,-1.69496c1.13294,-0.82196 0.99345,-4.38194 0.98763,-4.80993c-0.08995,-6.61425 -2.27109,-12.66865 -3.83205,-18.97374c-0.22121,-0.89354 -0.43988,-1.80365 -0.4535,-2.72406c-0.00874,-0.59088 0.88872,-1.41675 0.3876,-1.72994c-0.61084,-0.38175 -1.3757,0.43136 -2.04683,0.69296c-0.36634,0.1428 -0.73016,0.29183 -1.09267,0.44409c-0.28401,0.19718 -0.51172,0.2888 -0.51172,0.2888c-0.32372,0.12549 -0.65141,0.24229 -0.98267,0.35121c-0.26507,0.11408 -0.53034,0.22767 -0.79628,0.33957l-2.65498,0.72296c0,0 -0.6048,0.15972 -1.28923,0.01684zM229.8238,175.96625c2.85029,-1.21759 6.60894,-2.94577 9.56927,-0.95942c1.16025,0.77851 1.3066,5.37891 1.73822,7.10304c1.90212,7.59809 5.97073,17.33483 3.45605,25.23921c-1.18431,3.72263 -2.52841,3.85799 -5.76588,5.12543c-6.69603,2.62144 -13.28579,2.48098 -20.26861,3.13701c-0.36674,0.01678 -9.41685,0.50599 -9.79808,0.22389c-1.29561,-0.95873 -1.35401,-8.40598 -1.41501,-9.41052c-0.42633,-7.02027 -0.73012,-14.18048 -0.66789,-21.21903c0.0156,-1.7643 -0.82327,-3.89413 0.26011,-5.28671c1.19002,-1.52966 6.14324,-1.62157 8.15731,-1.93086c3.56943,-0.54813 4.87033,-1.12313 8.57454,-1.35928c2.05214,-0.13083 4.20169,-0.07513 6.15999,-0.66277z" fill="#000000" stroke="none" stroke-width="0.5"/><path d="M228.13928,181.65677l2.66253,-0.72072c0.26595,-0.11191 0.53299,-0.22477 0.79806,-0.33885c0.33126,-0.10892 0.661,-0.22479 0.98473,-0.35027c0,0 0.22857,-0.0912 0.51258,-0.28837c0.36251,-0.15226 0.72819,-0.3003 1.09453,-0.4431c0.67113,-0.2616 1.43909,-1.07283 2.04992,-0.69108c0.50112,0.31319 -0.39492,1.14003 -0.38618,1.73091c0.01362,0.92042 0.23689,1.83423 0.45811,2.72778c1.56096,6.30509 3.75403,12.41718 3.84398,19.03143c0.00582,0.42799 0.13822,3.99928 -0.99472,4.82124c-1.42925,1.03693 -3.32843,1.2307 -5.02945,1.70451c-5.30911,1.47884 -10.53486,1.3306 -15.94928,1.82875c-1.69541,0.08018 -3.43201,-0.09947 -5.09615,0.23446c-0.53802,0.10796 -0.75976,0.86004 -1.27947,1.03615c-0.36059,0.12219 0.72129,-0.47915 0.75333,-0.85853c0.13868,-1.64212 -0.17055,-3.299 -0.27091,-4.94391c-0.11328,-1.85654 -0.12206,-3.7321 -0.16578,-5.59158c-0.08889,-3.78071 -0.21467,-7.61137 -0.32267,-11.39301c-0.04052,-1.41854 0.03855,-2.86026 -0.17808,-4.26275c-0.10658,-0.68997 -1.1576,-1.36643 -0.77199,-1.94842c0.3483,-0.5257 1.24035,0.29626 1.87094,0.29117c1.0265,-0.00829 2.05264,-0.1823 3.06728,-0.33811c3.56512,-0.54749 7.41785,-0.67153 11.05499,-1.22157c0.68443,0.14288 1.2937,-0.0161 1.2937,-0.0161z" data-paper-data="{&quot;noHover&quot;:false,&quot;origItem&quot;:[&quot;Path&quot;,{&quot;applyMatrix&quot;:true,&quot;selected&quot;:true,&quot;segments&quot;:[[[226.8397,181.72253],[0.68443,0.14288],[-3.63714,0.55005],7],[[215.82046,182.93455],[3.56512,-0.54749],[-1.01464,0.15582],7],[[212.75893,183.26765],[1.0265,-0.00829],[-0.63059,0.00509],7],[[210.88996,182.97436],[0.3483,-0.5257],[-0.38561,0.582],7],[[211.66372,184.92065],[-0.10658,-0.68997],[0.21663,1.40249],7],[[211.84759,189.17405],[-0.04052,-1.41854],[0.10801,3.78163],7],[[212.1718,200.52767],[-0.08889,-3.78071],[0.04372,1.85948],7],[[212.32953,206.10542],[-0.11328,-1.85654],[0.10036,1.64491],7],[[212.59335,211.04227],[0.13868,-1.64212],[-0.03204,0.37938],7],[[211.8401,211.90086],[-0.36059,0.12219],[0.51971,-0.17611],7],[[213.1189,210.86418],[-0.53802,0.10796],[1.66413,-0.33393],7],[[218.20513,210.62363],[-1.69541,0.08018],[5.41442,-0.49815],7],[[234.10552,208.79872],[-5.30911,1.47884],[1.70102,-0.47381],7],[[239.12439,207.10377],[-1.42925,1.03693],[1.13294,-0.82196],7],[[240.11202,202.29384],[0.00582,0.42799],[-0.08995,-6.61425],7],[[236.27997,183.32009],[1.56096,6.30509],[-0.22121,-0.89354],7],[[235.82647,180.59603],[0.01362,0.92042],[-0.00874,-0.59088],7],[[236.21407,178.86609],[0.50112,0.31319],[-0.61084,-0.38175],7],[[234.16724,179.55906],[0.67113,-0.2616],[-0.36634,0.1428],7],[[233.07457,180.00315],[0.36251,-0.15226],[-0.28401,0.19718],7],[[232.56285,180.29195],[0,0],[-0.32372,0.12549],7],[[231.58018,180.64316],[0.33126,-0.10892],[-0.26507,0.11408],7],[[230.7839,180.98273],[0.26595,-0.11191],[0,0],7],[[228.12892,181.70569],[0,0],[0,0],7]],&quot;closed&quot;:true}]}" fill="#ffffff" stroke="none" stroke-width="0.5"/><path d="M214.7435,204.30113c0.18802,-1.36785 1.4493,-2.32429 2.81715,-2.13627c1.36785,0.18802 2.32429,1.4493 2.13627,2.81715c-0.18802,1.36785 -1.4493,2.32429 -2.81715,2.13627c-1.36785,-0.18802 -2.32429,-1.4493 -2.13627,-2.81715z" fill="#000000" stroke="none" stroke-width="0.5"/><path d="M264.051,180.16739c0.18802,-1.36785 1.4493,-2.32429 2.81715,-2.13627c1.36785,0.18802 2.32429,1.4493 2.13627,2.81715c-0.18802,1.36785 -1.4493,2.32429 -2.81715,2.13627c-1.36785,-0.18802 -2.32429,-1.4493 -2.13627,-2.81715z" fill="#000000" stroke="none" stroke-width="0.5"/><path d="M266.41288,214.23543c2.06299,1.41212 0.65087,3.47511 0.65087,3.47511l-0.39233,0.56552c-3.4287,5.69977 -6.72712,10.95818 -13.05161,13.85677c-7.2563,3.32565 -15.49512,1.41183 -22.98625,-0.13444c-2.45245,-0.50622 -5.83301,-1.12363 -7.95722,-2.68065c-3.90665,-2.86352 -3.48902,-3.50046 -4.96487,-7.64743c0,0 -0.80312,-2.36749 1.56437,-3.17061c2.36749,-0.80312 3.17061,1.56437 3.17061,1.56437c0.32184,1.01537 0.4186,2.13209 0.96552,3.04612c2.33373,3.90025 8.652,4.14705 12.53125,4.76558c3.10328,0.4948 7.00699,1.48944 10.18261,1.26543c8.13658,-0.57395 12.5182,-7.21863 16.2609,-13.44223l0.55105,-0.81268c0,0 1.41212,-2.06299 3.47511,-0.65087z" fill="#000000" stroke="none" stroke-width="0.5"/><text transform="translate(225.3641,134.56119) rotate(-1.6139) scale(0.5,0.5)" font-size="40" xml:space="preserve" fill="#000000" fill-rule="nonzero" stroke="#000000" stroke-width="2" stroke-linecap="butt" stroke-linejoin="miter" stroke-miterlimit="10" stroke-dasharray="" stroke-dashoffset="0" font-family="Handwriting" font-weight="normal" text-anchor="start" style="mix-blend-mode: normal"><tspan x="0" dy="0">a̷̧̛̙̺͆̂͂̓ḑ̴̨̛̯̯̺͍̮̣͈̺̤̣̩̺͕͕̦̼̲̟̻͖͍͇͇͕̟̞͖̿͊͑͛̈́̎͌̚͜͝d̸̨̖͇̯͉̙͉̝̳̼̭͉͇͍͈̬͙͇̋͆̿̊͆̍̏͗͌̂̈̾͐̏͂͂̈́̈́̽̃̽̎̑̑̌́̏̐̽͘̚͘͝͠͝͝</tspan></text></g></g></svg>