<svg version="1.1" xmlns="http://www.w3.org/2000/svg" xmlns:xlink="http://www.w3.org/1999/xlink" width="74.27188" height="697.50239" viewBox="0,0,74.27188,697.50239"><g transform="translate(-205.20184,-53.01269)"><g data-paper-data="{&quot;isPaintingLayer&quot;:true}" stroke-linejoin="miter" stroke-dasharray="" stroke-dashoffset="0" style="mix-blend-mode: normal"><g fill-rule="nonzero" stroke="#5f6164" stroke-width="0.5" stroke-miterlimit="10"><path d="M279.1971,308.76947h-73.6579v-73.6579h73.6579z" fill="#878b8e" stroke-linecap="butt"/><g fill="#878b8e" stroke-linecap="round"><path d="M206.04318,301.24861l72.96009,0" data-paper-data="{&quot;origPos&quot;:null}"/><path d="M279.00329,293.67633h-72.96011" data-paper-data="{&quot;origPos&quot;:null}"/><path d="M279.00328,286.68653h-72.96009" data-paper-data="{&quot;origPos&quot;:null}"/><path d="M279.00328,279.11426h-72.96011" data-paper-data="{&quot;origPos&quot;:null}"/><path d="M206.04321,272.12444l72.96009,0" data-paper-data="{&quot;origPos&quot;:null}"/><path d="M206.04319,264.5522h72.96011" data-paper-data="{&quot;origPos&quot;:null}"/><path d="M206.04321,257.56237h72.96009" data-paper-data="{&quot;origPos&quot;:null}"/><path d="M279.00329,249.99007h-72.96011" data-paper-data="{&quot;origPos&quot;:null}"/><path d="M279.00328,242.63243l-72.96009,0" data-paper-data="{&quot;origPos&quot;:null}"/><path d="M271.83134,308.42056v-72.96009" data-paper-data="{&quot;origPos&quot;:null,&quot;origRot&quot;:0}"/><path d="M264.25905,308.42056v-72.96011" data-paper-data="{&quot;origPos&quot;:null,&quot;origRot&quot;:0}"/><path d="M257.26926,308.42054v-72.96009" data-paper-data="{&quot;origPos&quot;:null,&quot;origRot&quot;:0}"/><path d="M249.69701,235.46045v72.96011" data-paper-data="{&quot;origPos&quot;:null,&quot;origRot&quot;:0}"/><path d="M242.70719,235.46047v72.96009" data-paper-data="{&quot;origPos&quot;:null,&quot;origRot&quot;:0}"/><path d="M235.13492,235.46045v72.96011" data-paper-data="{&quot;origPos&quot;:null,&quot;origRot&quot;:0}"/><path d="M228.14509,235.46045v72.96009" data-paper-data="{&quot;origPos&quot;:null,&quot;origRot&quot;:0}"/><path d="M220.57284,235.46045v72.96011" data-paper-data="{&quot;origPos&quot;:null,&quot;origRot&quot;:0}"/><path d="M213.21516,235.46047v72.96009" data-paper-data="{&quot;origPos&quot;:null,&quot;origRot&quot;:0}"/></g><path d="M279.1971,308.76947h-73.6579v-73.6579h73.6579z" fill="none" stroke-linecap="butt"/></g><g fill-rule="nonzero" stroke="#878a8b" stroke-width="0.5" stroke-miterlimit="10"><path d="M279.10977,750.26508l-73.6579,0v-73.6579h73.6579z" fill="#c3c6c8" stroke-linecap="butt"/><g fill="#c3c6c8" stroke-linecap="round"><path d="M205.95585,742.74422h72.96009" data-paper-data="{&quot;origPos&quot;:null}"/><path d="M278.91594,735.17194h-72.96011" data-paper-data="{&quot;origPos&quot;:null}"/><path d="M278.91594,728.18214h-72.96009" data-paper-data="{&quot;origPos&quot;:null}"/><path d="M278.91594,720.60987h-72.96011" data-paper-data="{&quot;origPos&quot;:null}"/><path d="M205.95586,713.62005h72.96009" data-paper-data="{&quot;origPos&quot;:null}"/><path d="M205.95586,706.04781l72.96011,0" data-paper-data="{&quot;origPos&quot;:null}"/><path d="M278.91594,699.05798h-72.96009" data-paper-data="{&quot;origPos&quot;:null}"/><path d="M278.91595,691.48568h-72.96011" data-paper-data="{&quot;origPos&quot;:null}"/><path d="M278.91594,684.12804l-72.96009,0" data-paper-data="{&quot;origPos&quot;:null}"/><path d="M271.74398,676.95608v72.96009" data-paper-data="{&quot;origPos&quot;:null,&quot;origRot&quot;:0}"/><path d="M264.17171,676.95606v72.96011" data-paper-data="{&quot;origPos&quot;:null,&quot;origRot&quot;:0}"/><path d="M257.18192,676.95606v72.96009" data-paper-data="{&quot;origPos&quot;:null,&quot;origRot&quot;:0}"/><path d="M249.60966,749.91617v-72.96011" data-paper-data="{&quot;origPos&quot;:null,&quot;origRot&quot;:0}"/><path d="M242.61987,749.91617v-72.96009" data-paper-data="{&quot;origPos&quot;:null,&quot;origRot&quot;:0}"/><path d="M235.04757,749.91617v-72.96011" data-paper-data="{&quot;origPos&quot;:null,&quot;origRot&quot;:0}"/><path d="M228.05776,749.91614l0,-72.96009" data-paper-data="{&quot;origPos&quot;:null,&quot;origRot&quot;:0}"/><path d="M220.48549,749.91617l0,-72.96011" data-paper-data="{&quot;origPos&quot;:null,&quot;origRot&quot;:0}"/><path d="M213.12782,676.95608l0,72.96009" data-paper-data="{&quot;origPos&quot;:null,&quot;origRot&quot;:0}"/></g><path d="M279.10977,750.26508l-73.6579,0v-73.6579h73.6579z" fill="none" stroke-linecap="butt"/></g><g fill-rule="nonzero" stroke="#707275" stroke-width="0.5" stroke-miterlimit="10"><path d="M279.22372,529.60281l-73.6579,0v-73.6579h73.6579z" fill="#a4a8ac" stroke-linecap="butt"/><g fill="#a4a8ac" stroke-linecap="round"><path d="M279.02986,522.08195h-72.96009" data-paper-data="{&quot;origPos&quot;:null}"/><path d="M206.06977,514.50967h72.96011" data-paper-data="{&quot;origPos&quot;:null}"/><path d="M206.06981,507.51987h72.96009" data-paper-data="{&quot;origPos&quot;:null}"/><path d="M279.02989,499.9476h-72.96011" data-paper-data="{&quot;origPos&quot;:null}"/><path d="M206.0698,492.95778h72.96009" data-paper-data="{&quot;origPos&quot;:null}"/><path d="M206.06979,485.38554h72.96011" data-paper-data="{&quot;origPos&quot;:null}"/><path d="M206.06981,478.39571h72.96009" data-paper-data="{&quot;origPos&quot;:null}"/><path d="M279.0299,470.82341h-72.96011" data-paper-data="{&quot;origPos&quot;:null}"/><path d="M206.06977,463.46577h72.96009" data-paper-data="{&quot;origPos&quot;:null}"/><path d="M271.85794,456.29381v72.96009" data-paper-data="{&quot;origPos&quot;:null,&quot;origRot&quot;:0}"/><path d="M264.28568,456.29379l0,72.96011" data-paper-data="{&quot;origPos&quot;:null,&quot;origRot&quot;:0}"/><path d="M257.29588,456.29379v72.96009" data-paper-data="{&quot;origPos&quot;:null,&quot;origRot&quot;:0}"/><path d="M249.72362,529.2539l0,-72.96011" data-paper-data="{&quot;origPos&quot;:null,&quot;origRot&quot;:0}"/><path d="M242.7338,529.2539l0,-72.96009" data-paper-data="{&quot;origPos&quot;:null,&quot;origRot&quot;:0}"/><path d="M235.16152,456.29379v72.96011" data-paper-data="{&quot;origPos&quot;:null,&quot;origRot&quot;:0}"/><path d="M228.17172,529.25388v-72.96009" data-paper-data="{&quot;origPos&quot;:null,&quot;origRot&quot;:0}"/><path d="M220.59944,529.2539v-72.96011" data-paper-data="{&quot;origPos&quot;:null,&quot;origRot&quot;:0}"/><path d="M213.24176,456.29381l0,72.96009" data-paper-data="{&quot;origPos&quot;:null,&quot;origRot&quot;:0}"/></g><path d="M279.22372,529.60281l-73.6579,0v-73.6579h73.6579z" fill="none" stroke-linecap="butt"/></g><g fill-rule="nonzero" stroke="#5f6164" stroke-width="0.5" stroke-miterlimit="10"><path d="M279.19709,235.10281h-73.6579l0,-73.6579h73.65791z" fill="#878b8e" stroke-linecap="butt"/><g fill="#878b8e" stroke-linecap="round"><path d="M279.00327,227.58194h-72.9601" data-paper-data="{&quot;origPos&quot;:null}"/><path d="M279.00329,220.00966h-72.96011" data-paper-data="{&quot;origPos&quot;:null}"/><path d="M279.00328,213.01986h-72.9601" data-paper-data="{&quot;origPos&quot;:null}"/><path d="M279.00328,205.44759h-72.96011" data-paper-data="{&quot;origPos&quot;:null}"/><path d="M206.0432,198.45777l72.96009,0" data-paper-data="{&quot;origPos&quot;:null}"/><path d="M279.00331,190.88553h-72.96011" data-paper-data="{&quot;origPos&quot;:null}"/><path d="M279.00328,183.8957l-72.96009,0" data-paper-data="{&quot;origPos&quot;:null}"/><path d="M279.00329,176.32341h-72.96011" data-paper-data="{&quot;origPos&quot;:null}"/><path d="M279.00327,168.96577l-72.9601,0" data-paper-data="{&quot;origPos&quot;:null}"/><path d="M271.83133,161.7938l0,72.96009" data-paper-data="{&quot;origPos&quot;:null,&quot;origRot&quot;:0}"/><path d="M264.25904,234.75389l0,-72.96011" data-paper-data="{&quot;origPos&quot;:null,&quot;origRot&quot;:0}"/><path d="M257.26926,234.75387l0,-72.96009" data-paper-data="{&quot;origPos&quot;:null,&quot;origRot&quot;:0}"/><path d="M249.697,161.79378l0,72.96011" data-paper-data="{&quot;origPos&quot;:null,&quot;origRot&quot;:0}"/><path d="M242.70718,234.75389l0,-72.96009" data-paper-data="{&quot;origPos&quot;:null,&quot;origRot&quot;:0}"/><path d="M235.13491,234.75389v-72.96011" data-paper-data="{&quot;origPos&quot;:null,&quot;origRot&quot;:0}"/><path d="M228.14508,161.79378l0,72.96009" data-paper-data="{&quot;origPos&quot;:null,&quot;origRot&quot;:0}"/><path d="M220.57284,161.79378l0,72.96011" data-paper-data="{&quot;origPos&quot;:null,&quot;origRot&quot;:0}"/><path d="M213.21515,234.75389v-72.96009" data-paper-data="{&quot;origPos&quot;:null,&quot;origRot&quot;:0}"/></g><path d="M279.19709,235.10281h-73.6579l0,-73.6579h73.65791z" fill="none" stroke-linecap="butt"/></g><g fill-rule="nonzero" stroke="#878a8b" stroke-width="0.5" stroke-miterlimit="10"><path d="M279.10974,676.59842h-73.6579v-73.6579h73.6579z" fill="#c3c6c8" stroke-linecap="butt"/><g fill="#c3c6c8" stroke-linecap="round"><path d="M278.9159,669.07755h-72.96009" data-paper-data="{&quot;origPos&quot;:null}"/><path d="M205.95582,661.50527h72.96011" data-paper-data="{&quot;origPos&quot;:null}"/><path d="M278.91595,654.51547l-72.9601,0" data-paper-data="{&quot;origPos&quot;:null}"/><path d="M278.91594,646.9432h-72.96011" data-paper-data="{&quot;origPos&quot;:null}"/><path d="M278.91594,639.95338h-72.9601" data-paper-data="{&quot;origPos&quot;:null}"/><path d="M205.95584,632.38114h72.96011" data-paper-data="{&quot;origPos&quot;:null}"/><path d="M278.91594,625.39131h-72.9601" data-paper-data="{&quot;origPos&quot;:null}"/><path d="M278.91594,617.81902h-72.96011" data-paper-data="{&quot;origPos&quot;:null}"/><path d="M278.91591,610.46138h-72.96009" data-paper-data="{&quot;origPos&quot;:null}"/><path d="M271.74397,603.28941v72.96009" data-paper-data="{&quot;origPos&quot;:null,&quot;origRot&quot;:0}"/><path d="M264.1717,676.2495v-72.96011" data-paper-data="{&quot;origPos&quot;:null,&quot;origRot&quot;:0}"/><path d="M257.18191,603.28939v72.96009" data-paper-data="{&quot;origPos&quot;:null,&quot;origRot&quot;:0}"/><path d="M249.60964,676.2495v-72.96011" data-paper-data="{&quot;origPos&quot;:null,&quot;origRot&quot;:0}"/><path d="M242.61984,676.2495v-72.96009" data-paper-data="{&quot;origPos&quot;:null,&quot;origRot&quot;:0}"/><path d="M235.04754,676.2495v-72.96011" data-paper-data="{&quot;origPos&quot;:null,&quot;origRot&quot;:0}"/><path d="M228.05774,676.24947v-72.96009" data-paper-data="{&quot;origPos&quot;:null,&quot;origRot&quot;:0}"/><path d="M220.48549,676.2495v-72.96011" data-paper-data="{&quot;origPos&quot;:null,&quot;origRot&quot;:0}"/><path d="M213.12781,676.2495l0,-72.96009" data-paper-data="{&quot;origPos&quot;:null,&quot;origRot&quot;:0}"/></g><path d="M279.10974,676.59842h-73.6579v-73.6579h73.6579z" fill="none" stroke-linecap="butt"/></g><g fill-rule="nonzero" stroke="#707275" stroke-width="0.5" stroke-miterlimit="10"><path d="M279.22372,455.93615h-73.6579v-73.6579h73.6579z" fill="#a4a8ac" stroke-linecap="butt"/><g fill="#a4a8ac" stroke-linecap="round"><path d="M279.02988,448.41528h-72.96009" data-paper-data="{&quot;origPos&quot;:null}"/><path d="M206.06979,440.843h72.96011" data-paper-data="{&quot;origPos&quot;:null}"/><path d="M206.0698,433.8532l72.9601,0" data-paper-data="{&quot;origPos&quot;:null}"/><path d="M279.02989,426.28093h-72.96011" data-paper-data="{&quot;origPos&quot;:null}"/><path d="M279.02989,419.29111h-72.9601" data-paper-data="{&quot;origPos&quot;:null}"/><path d="M206.06977,411.71887h72.96011" data-paper-data="{&quot;origPos&quot;:null}"/><path d="M206.0698,404.72904h72.9601" data-paper-data="{&quot;origPos&quot;:null}"/><path d="M206.06979,397.15675h72.96011" data-paper-data="{&quot;origPos&quot;:null}"/><path d="M279.02987,389.79911h-72.96009" data-paper-data="{&quot;origPos&quot;:null}"/><path d="M271.85794,455.58723v-72.96009" data-paper-data="{&quot;origPos&quot;:null,&quot;origRot&quot;:0}"/><path d="M264.28567,455.58723v-72.96011" data-paper-data="{&quot;origPos&quot;:null,&quot;origRot&quot;:0}"/><path d="M257.29588,382.62712v72.96009" data-paper-data="{&quot;origPos&quot;:null,&quot;origRot&quot;:0}"/><path d="M249.72362,382.62712v72.96011" data-paper-data="{&quot;origPos&quot;:null,&quot;origRot&quot;:0}"/><path d="M242.7338,382.62714v72.96009" data-paper-data="{&quot;origPos&quot;:null,&quot;origRot&quot;:0}"/><path d="M235.16152,455.58723v-72.96011" data-paper-data="{&quot;origPos&quot;:null,&quot;origRot&quot;:0}"/><path d="M228.17172,455.58721v-72.96009" data-paper-data="{&quot;origPos&quot;:null,&quot;origRot&quot;:0}"/><path d="M220.59944,455.58723v-72.96011" data-paper-data="{&quot;origPos&quot;:null,&quot;origRot&quot;:0}"/><path d="M213.24176,455.58723v-72.96009" data-paper-data="{&quot;origPos&quot;:null,&quot;origRot&quot;:0}"/></g><path d="M279.22372,455.93615h-73.6579v-73.6579h73.6579z" fill="none" stroke-linecap="butt"/></g><g fill-rule="nonzero" stroke="#5f6164" stroke-width="0.5" stroke-miterlimit="10"><path d="M279.19709,161.76949l-73.6579,0v-73.6579h73.65791z" fill="#878b8e" stroke-linecap="butt"/><g fill="#878b8e" stroke-linecap="round"><path d="M206.04318,154.24862l72.9601,0" data-paper-data="{&quot;origPos&quot;:null}"/><path d="M206.04318,146.67633h72.96011" data-paper-data="{&quot;origPos&quot;:null}"/><path d="M279.00328,139.68653l-72.9601,0" data-paper-data="{&quot;origPos&quot;:null}"/><path d="M279.00329,132.11425l-72.96011,0" data-paper-data="{&quot;origPos&quot;:null}"/><path d="M206.04319,125.12444h72.96009" data-paper-data="{&quot;origPos&quot;:null}"/><path d="M279.00331,117.5522l-72.96011,0" data-paper-data="{&quot;origPos&quot;:null}"/><path d="M206.0432,110.56237h72.96009" data-paper-data="{&quot;origPos&quot;:null}"/><path d="M279.00328,102.99008h-72.96011" data-paper-data="{&quot;origPos&quot;:null}"/><path d="M206.04317,95.63242l72.9601,0" data-paper-data="{&quot;origPos&quot;:null}"/><path d="M271.83133,161.42056v-72.96009" data-paper-data="{&quot;origPos&quot;:null,&quot;origRot&quot;:0}"/><path d="M264.25904,161.42056v-72.96011" data-paper-data="{&quot;origPos&quot;:null,&quot;origRot&quot;:0}"/><path d="M257.26926,88.46045l0,72.9601" data-paper-data="{&quot;origPos&quot;:null,&quot;origRot&quot;:0}"/><path d="M249.697,161.42056v-72.96011" data-paper-data="{&quot;origPos&quot;:null,&quot;origRot&quot;:0}"/><path d="M242.70718,88.46047l0,72.96009" data-paper-data="{&quot;origPos&quot;:null,&quot;origRot&quot;:0}"/><path d="M235.13491,88.46045v72.96011" data-paper-data="{&quot;origPos&quot;:null,&quot;origRot&quot;:0}"/><path d="M228.14508,88.46045l0,72.9601" data-paper-data="{&quot;origPos&quot;:null,&quot;origRot&quot;:0}"/><path d="M220.57284,88.46045l0,72.96011" data-paper-data="{&quot;origPos&quot;:null,&quot;origRot&quot;:0}"/><path d="M213.21515,88.46047v72.96009" data-paper-data="{&quot;origPos&quot;:null,&quot;origRot&quot;:0}"/></g><path d="M279.19709,161.76949l-73.6579,0v-73.6579h73.65791z" fill="none" stroke-linecap="butt"/></g><g fill-rule="nonzero" stroke="#878a8b" stroke-width="0.5" stroke-miterlimit="10"><path d="M279.10974,603.2651h-73.6579v-73.6579l73.6579,0z" fill="#c3c6c8" stroke-linecap="butt"/><g fill="#c3c6c8" stroke-linecap="round"><path d="M278.91593,595.74423h-72.96009" data-paper-data="{&quot;origPos&quot;:null}"/><path d="M205.95582,588.17194h72.96011" data-paper-data="{&quot;origPos&quot;:null}"/><path d="M205.95585,581.18214h72.9601" data-paper-data="{&quot;origPos&quot;:null}"/><path d="M205.95584,573.60986h72.96011" data-paper-data="{&quot;origPos&quot;:null}"/><path d="M205.95585,566.62005h72.9601" data-paper-data="{&quot;origPos&quot;:null}"/><path d="M205.95584,559.04781h72.96011" data-paper-data="{&quot;origPos&quot;:null}"/><path d="M278.91595,552.05798h-72.9601" data-paper-data="{&quot;origPos&quot;:null}"/><path d="M278.91595,544.48569h-72.96011" data-paper-data="{&quot;origPos&quot;:null}"/><path d="M278.91593,537.12803l-72.96009,0" data-paper-data="{&quot;origPos&quot;:null}"/><path d="M271.74398,602.91617v-72.96009" data-paper-data="{&quot;origPos&quot;:null,&quot;origRot&quot;:0}"/><path d="M264.1717,529.95606v72.96011" data-paper-data="{&quot;origPos&quot;:null,&quot;origRot&quot;:0}"/><path d="M257.18191,529.95606l0,72.9601" data-paper-data="{&quot;origPos&quot;:null,&quot;origRot&quot;:0}"/><path d="M249.60964,529.95606l0,72.96011" data-paper-data="{&quot;origPos&quot;:null,&quot;origRot&quot;:0}"/><path d="M242.61984,529.95608v72.96009" data-paper-data="{&quot;origPos&quot;:null,&quot;origRot&quot;:0}"/><path d="M235.04757,602.91617l0,-72.96011" data-paper-data="{&quot;origPos&quot;:null,&quot;origRot&quot;:0}"/><path d="M228.05774,529.95604v72.96009" data-paper-data="{&quot;origPos&quot;:null,&quot;origRot&quot;:0}"/><path d="M220.48549,602.91617v-72.96011" data-paper-data="{&quot;origPos&quot;:null,&quot;origRot&quot;:0}"/><path d="M213.12781,602.91617v-72.96009" data-paper-data="{&quot;origPos&quot;:null,&quot;origRot&quot;:0}"/></g><path d="M279.10974,603.2651h-73.6579v-73.6579l73.6579,0z" fill="none" stroke-linecap="butt"/></g><g fill-rule="nonzero" stroke="#707275" stroke-width="0.5" stroke-miterlimit="10"><path d="M279.22372,382.60283l-73.6579,0l0,-73.6579l73.6579,0z" fill="#a4a8ac" stroke-linecap="butt"/><g fill="#a4a8ac" stroke-linecap="round"><path d="M279.02987,375.08196h-72.96009" data-paper-data="{&quot;origPos&quot;:null}"/><path d="M279.0299,367.50967h-72.96011" data-paper-data="{&quot;origPos&quot;:null}"/><path d="M206.06981,360.51987h72.9601" data-paper-data="{&quot;origPos&quot;:null}"/><path d="M206.06977,352.94759h72.96011" data-paper-data="{&quot;origPos&quot;:null}"/><path d="M279.02991,345.95778l-72.9601,0" data-paper-data="{&quot;origPos&quot;:null}"/><path d="M206.06977,338.38554h72.96011" data-paper-data="{&quot;origPos&quot;:null}"/><path d="M279.02991,331.39571l-72.9601,0" data-paper-data="{&quot;origPos&quot;:null}"/><path d="M206.06977,323.82342h72.96011" data-paper-data="{&quot;origPos&quot;:null}"/><path d="M206.06979,316.46576h72.96009" data-paper-data="{&quot;origPos&quot;:null}"/><path d="M271.85794,309.29381v72.96009" data-paper-data="{&quot;origPos&quot;:null,&quot;origRot&quot;:0}"/><path d="M264.28568,382.2539v-72.96011" data-paper-data="{&quot;origPos&quot;:null,&quot;origRot&quot;:0}"/><path d="M257.29588,382.25389v-72.9601" data-paper-data="{&quot;origPos&quot;:null,&quot;origRot&quot;:0}"/><path d="M249.72362,309.29379l0,72.96011" data-paper-data="{&quot;origPos&quot;:null,&quot;origRot&quot;:0}"/><path d="M242.7338,382.2539v-72.96009" data-paper-data="{&quot;origPos&quot;:null,&quot;origRot&quot;:0}"/><path d="M235.16152,309.29379l0,72.96011" data-paper-data="{&quot;origPos&quot;:null,&quot;origRot&quot;:0}"/><path d="M228.17172,309.29379v72.9601" data-paper-data="{&quot;origPos&quot;:null,&quot;origRot&quot;:0}"/><path d="M220.59945,382.2539v-72.96011" data-paper-data="{&quot;origPos&quot;:null,&quot;origRot&quot;:0}"/><path d="M213.24176,382.2539v-72.96009" data-paper-data="{&quot;origPos&quot;:null,&quot;origRot&quot;:0}"/></g><path d="M279.22372,382.60283l-73.6579,0l0,-73.6579l73.6579,0z" fill="none" stroke-linecap="butt"/></g><g fill="#ffffff" fill-rule="evenodd"><path d="M247.73072,53.24323c2.62186,0 4.74742,2.14044 4.74742,4.78155v6.86015c0,2.64084 -2.12556,4.78181 -4.74742,4.78181c-2.62186,0 -4.74742,-2.14095 -4.74742,-4.78181v-6.86015c0,-2.64111 2.12556,-4.78155 4.74742,-4.78155zM247.72661,56.13274c-1.06676,0 -1.9313,0.8707 -1.9313,1.9449v6.74287c0,1.07419 0.86455,1.9449 1.9313,1.9449c1.0665,0 1.93104,-0.8707 1.93104,-1.9449v-6.74287c0,-1.07419 -0.86455,-1.9449 -1.93104,-1.9449z" stroke="#000000" stroke-width="0" stroke-linecap="round" stroke-miterlimit="8"/><path d="M235.93116,53.06169c2.62186,0 4.74742,2.14044 4.74742,4.78155v6.86015c0,2.64084 -2.12556,4.78181 -4.74742,4.78181c-2.62186,0 -4.74742,-2.14095 -4.74742,-4.78181v-6.86015c0,-2.64111 2.12556,-4.78155 4.74742,-4.78155zM235.92705,55.9512c-1.06676,0 -1.9313,0.8707 -1.9313,1.9449v6.74287c0,1.07419 0.86455,1.9449 1.9313,1.9449c1.0665,0 1.93104,-0.8707 1.93104,-1.9449v-6.74287c0,-1.07419 -0.86455,-1.9449 -1.93104,-1.9449z" stroke="#000000" stroke-width="0" stroke-linecap="round" stroke-miterlimit="8"/><path d="M259.53028,53.24323c2.62186,0 4.74742,2.14044 4.74742,4.78155v6.86015c0,2.64084 -2.12556,4.78181 -4.74742,4.78181c-2.62186,0 -4.74742,-2.14095 -4.74742,-4.78181v-6.86015c0,-2.64111 2.12556,-4.78155 4.74742,-4.78155zM259.52616,56.13274c-1.06676,0 -1.9313,0.8707 -1.9313,1.9449v6.74287c0,1.07419 0.86455,1.9449 1.9313,1.9449c1.0665,0 1.93104,-0.8707 1.93104,-1.9449v-6.74287c0,-1.07419 -0.86455,-1.9449 -1.93104,-1.9449z" stroke="#000000" stroke-width="0" stroke-linecap="round" stroke-miterlimit="8"/><path d="M219.88423,53.0127c2.64171,0 4.81452,2.00928 5.0756,4.5843l0.02414,0.47911l0.00274,0.02564v9.70022c0,0.76682 -0.63392,1.38855 -1.41593,1.38855c-0.78202,0 -1.41593,-0.62172 -1.41593,-1.38855v-5.13235l-0.28473,0.15456c-0.61028,0.25835 -1.28153,0.40121 -1.98589,0.40121c-2.81768,0 -5.10199,-2.28604 -5.10199,-5.10622c0,-2.82017 2.2843,-5.10646 5.10199,-5.10646zM219.88175,55.84232c-1.25664,0 -2.2751,1.01149 -2.2751,2.25892c0,1.24744 1.01846,2.25892 2.2751,2.25892c1.25664,0 2.2751,-1.01149 2.2751,-2.25892c0,-1.24743 -1.01846,-2.25892 -2.2751,-2.25892z" stroke="none" stroke-width="1" stroke-linecap="butt" stroke-miterlimit="10"/></g><g fill-rule="nonzero" stroke-miterlimit="10"><g stroke="#000000" stroke-width="0" stroke-linecap="butt"><path d="M215.53678,133.94965c-0.34766,-1.99179 -0.49929,-11.06254 -0.45987,-13.42624c0.03942,-2.36369 0.39348,-12.76714 1.04556,-14.29316c0.66421,-1.55435 2.83113,-1.63665 3.03995,-1.67329c1.98176,-0.34765 5.33429,-0.75264 6.95042,-0.74993c1.79565,0.00301 6.95748,-0.09282 9.55304,1.70202c0.94433,0.65302 0.68912,2.32625 1.02617,3.25518c0.30005,0.827 0.74068,19.23377 0.42436,23.25127c-0.18389,2.33532 -0.30215,4.16292 -1.72475,5.82543c-0.67276,0.78621 -4.53357,1.45484 -8.24386,1.62595c-3.9219,0.18085 -7.71052,-0.17108 -8.71952,-0.64475c-2.80508,-1.31688 -2.80156,-4.35735 -2.89149,-4.87249z" fill="#374c61"/><path d="M217.78818,132.60034c-0.27387,-1.56901 -0.39243,-9.35518 -0.36138,-11.21716c0.03105,-1.86197 0.3126,-11.93438 0.82627,-13.13647c0.52323,-1.22443 2.2302,-1.28926 2.3947,-1.3181c1.56113,-0.27385 4.20202,-0.59289 5.4751,-0.59075c1.41451,0.00237 5.48068,-0.07311 7.5253,1.34074c0.74388,0.51441 0.54284,1.83249 0.80835,2.56425c0.23636,0.65147 0.57996,17.66915 0.33077,20.8339c-0.14485,1.83961 -0.23801,3.2793 -1.35864,4.58893c-0.52995,0.61933 -3.57127,1.14605 -6.49402,1.28082c-3.08942,0.14247 -6.07389,-0.13475 -6.86872,-0.5079c-2.20967,-1.03734 -2.20689,-3.43246 -2.27773,-3.83826z" fill="#ffffff"/></g><g stroke-linecap="round"><path d="M261.14093,146.34093c3.74017,-0.47595 6.60445,-2.07069 6.60445,-2.07069c0,0 2.17678,-1.21016 3.42276,0.6529c1.3348,1.99587 -0.92314,3.60624 -0.92314,3.60624c0,0 -3.39553,2.49465 -8.49595,3.23303c-5.04009,0.72965 -8.37631,-0.51276 -8.37631,-0.51276c0,0 -2.18174,-1.14817 -1.73835,-3.10422c0.41972,-1.85162 2.50304,-1.83607 2.50304,-1.83607c0,0 3.1604,0.52062 7.00348,0.03158z" fill="#374c61" stroke="#000000" stroke-width="0"/><path d="M269.05893,146.47751c0,0 -3.51634,1.99057 -7.09292,2.55836c-4.29873,0.68243 -7.42166,0.11672 -7.42166,0.11672" fill="none" stroke="#2a3a4a" stroke-width="1"/></g><g stroke="#000000" stroke-width="0" stroke-linecap="butt"><path d="M249.41241,133.94965c-0.34766,-1.99179 -0.49929,-11.06254 -0.45987,-13.42624c0.03942,-2.36369 0.39348,-12.76714 1.04556,-14.29316c0.66421,-1.55435 2.83113,-1.63665 3.03995,-1.67329c1.98176,-0.34765 5.33429,-0.75264 6.95042,-0.74993c1.79565,0.00301 6.95748,-0.09282 9.55304,1.70202c0.94433,0.65302 0.68912,2.32625 1.02617,3.25518c0.30005,0.827 0.74068,19.23377 0.42436,23.25127c-0.18389,2.33532 -0.30215,4.16292 -1.72475,5.82543c-0.67276,0.78621 -4.53357,1.45484 -8.24386,1.62595c-3.9219,0.18085 -7.71052,-0.17108 -8.71952,-0.64475c-2.80508,-1.31688 -2.80156,-4.35735 -2.89149,-4.87249z" fill="#374c61"/><path d="M251.66381,132.60034c-0.27387,-1.56901 -0.39243,-9.35518 -0.36138,-11.21716c0.03105,-1.86197 0.3126,-11.93438 0.82627,-13.13647c0.52323,-1.22443 2.2302,-1.28926 2.3947,-1.3181c1.56113,-0.27385 4.20202,-0.59289 5.4751,-0.59075c1.41451,0.00237 5.48068,-0.07311 7.5253,1.34074c0.74388,0.51441 0.54284,1.83249 0.80835,2.56425c0.23636,0.65147 0.57996,17.66915 0.33077,20.8339c-0.14485,1.83961 -0.23801,3.2793 -1.35864,4.58893c-0.52995,0.61933 -3.57127,1.14605 -6.49402,1.28082c-3.08942,0.14247 -6.07389,-0.13475 -6.86872,-0.5079c-2.20967,-1.03734 -2.20689,-3.43246 -2.27773,-3.83826z" fill="#ffffff"/></g><g stroke="none" stroke-width="1" stroke-linecap="butt"><path d="M228.83843,119.30084c0.6264,0.64323 1.01383,1.53203 1.01383,2.51263c0,0.98061 -0.38743,1.86937 -1.01383,2.51263c-0.62602,0.64362 -1.49102,1.0417 -2.44539,1.0417c-0.95436,0 -1.81934,-0.39809 -2.44536,-1.0417c-0.62642,-0.64326 -1.01385,-1.53203 -1.01385,-2.51263c0,-0.98061 0.38743,-1.8694 1.01385,-2.51263c0.62602,-0.64362 1.49099,-1.0417 2.44536,-1.0417c0.95436,0 1.81936,0.39809 2.44539,1.0417z" data-paper-data="{&quot;origPos&quot;:null}" fill="#000000"/><path d="M227.6817,119.75953c0.14807,0.15214 0.23969,0.36227 0.23969,0.59427c0,0.232 -0.09163,0.44213 -0.23969,0.59427c-0.14807,0.15214 -0.35258,0.24629 -0.57837,0.24629c-0.22579,0 -0.43029,-0.09415 -0.57837,-0.24629c-0.14807,-0.15214 -0.23969,-0.36227 -0.23969,-0.59427c0,-0.232 0.09163,-0.44213 0.23969,-0.59427c0.14807,-0.15214 0.35258,-0.24629 0.57837,-0.24629c0.22579,0 0.43029,0.09415 0.57837,0.24629z" data-paper-data="{&quot;origPos&quot;:null}" fill="#ffffff"/></g><g stroke="none" stroke-width="1" stroke-linecap="butt"><path d="M262.43246,119.30084c0.6264,0.64323 1.01383,1.53202 1.01383,2.51263c0,0.98061 -0.38743,1.86937 -1.01383,2.51263c-0.62602,0.64362 -1.49102,1.04171 -2.44539,1.04171c-0.95436,0 -1.81934,-0.39808 -2.44536,-1.04171c-0.62642,-0.64326 -1.01385,-1.53202 -1.01385,-2.51263c0,-0.98061 0.38743,-1.8694 1.01385,-2.51263c0.62602,-0.64362 1.49099,-1.04171 2.44536,-1.04171c0.95436,0 1.81936,0.39808 2.44539,1.04171z" data-paper-data="{&quot;origPos&quot;:null}" fill="#000000"/><path d="M261.27573,119.75953c0.14807,0.15214 0.2397,0.36227 0.2397,0.59426c0,0.23199 -0.09163,0.44213 -0.2397,0.59426c-0.14807,0.15214 -0.35258,0.24628 -0.57837,0.24628c-0.22579,0 -0.43029,-0.09415 -0.57837,-0.24628c-0.14807,-0.15214 -0.2397,-0.36227 -0.2397,-0.59426c0,-0.23199 0.09163,-0.44213 0.2397,-0.59426c0.14807,-0.15214 0.35258,-0.24628 0.57837,-0.24628c0.22579,0 0.4303,0.09415 0.57837,0.24628z" data-paper-data="{&quot;origPos&quot;:null}" fill="#ffffff"/></g><path d="M211.80515,97.22051v-11.19321h28.05404v11.19321z" data-paper-data="{&quot;index&quot;:null}" fill="#374c61" stroke="#000000" stroke-width="0" stroke-linecap="butt"/><path d="M246.13246,97.22051v-11.19321h28.05404v11.19321z" data-paper-data="{&quot;index&quot;:null}" fill="#374c61" stroke="#000000" stroke-width="0" stroke-linecap="butt"/></g></g></g></svg>