<svg version="1.1" xmlns="http://www.w3.org/2000/svg" xmlns:xlink="http://www.w3.org/1999/xlink" width="160.28183" height="18.35552" viewBox="0,0,160.28183,18.35552"><defs><linearGradient x1="168.54088" y1="179.80166" x2="168.54088" y2="186.16186" gradientUnits="userSpaceOnUse" id="color-1"><stop offset="0" stop-color="#d7c827" stop-opacity="0"/><stop offset="1" stop-color="#d7c827"/></linearGradient><linearGradient x1="192.35593" y1="179.80159" x2="192.35593" y2="186.16179" gradientUnits="userSpaceOnUse" id="color-2"><stop offset="0" stop-color="#d7c827" stop-opacity="0"/><stop offset="1" stop-color="#d7c827"/></linearGradient><linearGradient x1="216.17097" y1="179.80148" x2="216.17097" y2="186.16176" gradientUnits="userSpaceOnUse" id="color-3"><stop offset="0" stop-color="#d7c827" stop-opacity="0"/><stop offset="1" stop-color="#d7c827"/></linearGradient><linearGradient x1="239.96214" y1="179.31895" x2="239.96214" y2="186.00213" gradientUnits="userSpaceOnUse" id="color-4"><stop offset="0" stop-color="#d7c827" stop-opacity="0"/><stop offset="1" stop-color="#d7c827"/></linearGradient><linearGradient x1="263.93441" y1="179.80131" x2="263.93441" y2="186.16158" gradientUnits="userSpaceOnUse" id="color-5"><stop offset="0" stop-color="#d7c827" stop-opacity="0"/><stop offset="1" stop-color="#d7c827"/></linearGradient><linearGradient x1="287.74945" y1="179.80126" x2="287.74945" y2="186.16148" gradientUnits="userSpaceOnUse" id="color-6"><stop offset="0" stop-color="#d7c827" stop-opacity="0"/><stop offset="1" stop-color="#d7c827"/></linearGradient><linearGradient x1="311.56449" y1="179.80126" x2="311.56449" y2="186.16148" gradientUnits="userSpaceOnUse" id="color-7"><stop offset="0" stop-color="#d7c827" stop-opacity="0"/><stop offset="1" stop-color="#d7c827"/></linearGradient></defs><g transform="translate(-159.85909,-170.82224)"><g data-paper-data="{&quot;isPaintingLayer&quot;:true}" fill-rule="nonzero" stroke-width="0" stroke-linejoin="miter" stroke-miterlimit="10" stroke-dasharray="" stroke-dashoffset="0" style="mix-blend-mode: normal"><g><path d="M170.37058,178.41247c0.00078,2.88061 -0.02999,5.6168 -0.09232,6.04797c-0.12186,0.84279 -0.6903,1.54187 -1.54184,1.54187c-0.85155,0 -1.62972,-0.64196 -1.54188,-1.54187c0.0445,-0.45592 0.11399,-3.1794 0.10265,-6.04797c-0.01134,-2.86858 -0.05814,-5.59205 -0.10265,-6.04798c-0.08784,-0.89992 0.69033,-1.54186 1.54188,-1.54186c0.85155,0 1.42001,0.69908 1.54184,1.54186c0.06233,0.43116 0.09155,3.16735 0.09232,6.04798z" data-paper-data="{&quot;index&quot;:null}" fill-opacity="0.99608" fill="#9e9e9e" stroke="#000000" stroke-linecap="round"/><path d="M194.18562,178.41241c0.00078,2.88061 -0.02999,5.6168 -0.09232,6.04796c-0.12186,0.84279 -0.69031,1.54188 -1.54185,1.54188c-0.85155,0 -1.62972,-0.64198 -1.54187,-1.54188c0.0445,-0.45592 0.114,-3.17941 0.10266,-6.04796c-0.01134,-2.86857 -0.05814,-5.59206 -0.10266,-6.04798c-0.08784,-0.89992 0.69031,-1.54185 1.54187,-1.54185c0.85155,0 1.42002,0.69907 1.54185,1.54185c0.06233,0.43116 0.09155,3.16736 0.09232,6.04798z" data-paper-data="{&quot;index&quot;:null}" fill-opacity="0.99608" fill="#9e9e9e" stroke="#000000" stroke-linecap="round"/><path d="M218.00066,178.41231c0.00078,2.88061 -0.02999,5.6168 -0.09232,6.04795c-0.12186,0.84279 -0.6903,1.54188 -1.54187,1.54188c-0.85155,0 -1.62973,-0.64198 -1.54187,-1.54188c0.0445,-0.45592 0.11398,-3.1794 0.10264,-6.04795c-0.01134,-2.86858 -0.05815,-5.59206 -0.10264,-6.04798c-0.08784,-0.89991 0.69032,-1.54187 1.54187,-1.54187c0.85155,0 1.42001,0.69908 1.54187,1.54187c0.06233,0.43116 0.09155,3.16736 0.09232,6.04798z" data-paper-data="{&quot;index&quot;:null}" fill-opacity="0.99608" fill="#9e9e9e" stroke="#000000" stroke-linecap="round"/><path d="M262.19703,172.36423c0.12185,-0.84279 0.6903,-1.54187 1.54185,-1.54187c0.85156,0 1.62971,0.64194 1.54188,1.54187c-0.04452,0.45593 -0.09132,3.1794 -0.10266,6.04797c-0.01134,2.86857 0.05816,5.59205 0.10266,6.04797c0.08785,0.89991 -0.69032,1.54187 -1.54188,1.54187c-0.85156,0 -1.41999,-0.69907 -1.54185,-1.54187c-0.06233,-0.43116 -0.09311,-3.16734 -0.09232,-6.04797c0.00078,-2.88061 0.02999,-5.61682 0.09232,-6.04797z" data-paper-data="{&quot;index&quot;:null}" fill-opacity="0.99608" fill="#9e9e9e" stroke="#000000" stroke-linecap="round"/><path d="M286.01206,172.36415c0.12185,-0.84279 0.6903,-1.54187 1.54185,-1.54187c0.85156,0 1.62972,0.64196 1.54188,1.54187c-0.04452,0.45593 -0.09132,3.17938 -0.10266,6.04796c-0.01134,2.86857 0.05815,5.59205 0.10266,6.04797c0.08785,0.89991 -0.69032,1.54187 -1.54188,1.54187c-0.85156,0 -1.41999,-0.69908 -1.54185,-1.54187c-0.06233,-0.43116 -0.0931,-3.16734 -0.09231,-6.04797c0.00078,-2.88061 0.02999,-5.6168 0.09231,-6.04796z" data-paper-data="{&quot;index&quot;:null}" fill-opacity="0.99608" fill="#9e9e9e" stroke="#000000" stroke-linecap="round"/><path d="M309.82711,172.36415c0.12185,-0.84279 0.69031,-1.54187 1.54187,-1.54187c0.85156,0 1.62971,0.64196 1.54188,1.54187c-0.04452,0.45593 -0.09132,3.17938 -0.10266,6.04796c-0.01134,2.86857 0.05817,5.59205 0.10266,6.04797c0.08785,0.89991 -0.69032,1.54187 -1.54188,1.54187c-0.85156,0 -1.42001,-0.69908 -1.54187,-1.54187c-0.06233,-0.43116 -0.0931,-3.16734 -0.09232,-6.04797c0.00078,-2.88061 0.02999,-5.6168 0.09232,-6.04796z" data-paper-data="{&quot;index&quot;:null}" fill-opacity="0.99608" fill="#9e9e9e" stroke="#000000" stroke-linecap="round"/><path d="M315.3342,177.78548c2.65467,0 4.80671,3.22807 4.80671,7.21007c0,0.03538 0,2.225 0,4.18182l-160.28183,0.00038c0,-1.94166 0,-4.11432 0,-4.14942c0,-3.95115 2.13535,-7.15418 4.76946,-7.15418z" data-paper-data="{&quot;index&quot;:null}" fill="#ff4242" stroke="#000000" stroke-linecap="butt"/><g data-paper-data="{&quot;index&quot;:null}"><g data-paper-data="{&quot;index&quot;:null}" stroke-linecap="butt"><path d="M170.13126,184.41087c0,-0.87893 -0.71251,-1.59145 -1.59144,-1.59145c-0.87893,0 -1.59144,0.71251 -1.59144,1.59145l-3.23367,-0.00002c0,-2.63267 1.96179,-4.76686 4.82511,-4.76686c2.86332,0 4.82511,2.13422 4.82511,4.76689z" data-paper-data="{&quot;index&quot;:null}" fill="#ffffff" stroke="none"/><path d="M166.94839,184.41087c0,-0.87893 0.71249,-1.59145 1.59143,-1.59145c0.87893,0 1.59145,0.71251 1.59145,1.59145" data-paper-data="{&quot;index&quot;:null}" fill="none" stroke="#000000"/><path d="M163.71472,184.41087c0,-2.63267 1.96179,-4.76687 4.82511,-4.76687c2.86332,0 4.82511,2.13423 4.82511,4.7669" data-paper-data="{&quot;index&quot;:null}" fill="none" stroke="#000000"/></g><g stroke="#000000" stroke-linecap="round"><path d="M167.04072,172.36452c0.12186,-0.84279 0.69031,-1.54187 1.54187,-1.54187c0.85155,0 1.62972,0.64194 1.54187,1.54187c-0.04451,0.45594 -0.09132,3.17941 -0.10266,6.04798c-0.01134,2.86858 0.05817,5.59205 0.10266,6.04797c0.08785,0.89991 -0.69033,1.54188 -1.54187,1.54188c-0.85155,0 -1.42002,-0.69908 -1.54187,-1.54188c-0.06233,-0.43116 -0.09311,-3.16734 -0.09233,-6.04797c0.00078,-2.88062 0.03,-5.61683 0.09233,-6.04798z" fill-opacity="0.99608" fill="#9e9e9e"/><path d="M170.02223,179.80166c0.01017,2.35235 0.06498,4.27696 0.10223,4.65878c0.08785,0.89991 -0.69033,1.54187 -1.54187,1.54187c-0.85155,0 -1.42002,-0.69908 -1.54187,-1.54187c-0.05225,-0.36137 -0.08232,-2.29466 -0.09023,-4.65878" fill="url(#color-1)"/></g><g stroke-linecap="butt"><path d="M173.36493,184.41087c0,2.63266 -1.96179,4.76689 -4.82511,4.76689c-2.86332,0 -4.82511,-2.13419 -4.82511,-4.76686l3.23367,-0.00003c0,0.87893 0.7125,1.59144 1.59144,1.59144c0.87893,0 1.59144,-0.71251 1.59144,-1.59144z" data-paper-data="{&quot;index&quot;:null}" fill="#ffffff" stroke="none"/><path d="M170.13126,184.41087c0,0.87893 -0.71251,1.59144 -1.59144,1.59144c-0.87893,0 -1.59144,-0.71251 -1.59144,-1.59144" data-paper-data="{&quot;index&quot;:null}" fill="none" stroke="#000000"/><path d="M173.36493,184.41087c0,2.63266 -1.96179,4.76689 -4.82511,4.76689c-2.86332,0 -4.82511,-2.13419 -4.82511,-4.76686" data-paper-data="{&quot;index&quot;:null}" fill="none" stroke="#000000"/></g></g><g data-paper-data="{&quot;index&quot;:null}"><g data-paper-data="{&quot;index&quot;:null}" stroke-linecap="butt"><path d="M193.94632,184.41082c0,-0.87893 -0.71252,-1.59145 -1.59145,-1.59145c-0.87893,0 -1.59144,0.71251 -1.59144,1.59145l-3.23368,-0.00001c0,-2.63267 1.9618,-4.76687 4.82512,-4.76687c2.86332,0 4.82511,2.13422 4.82511,4.76689z" data-paper-data="{&quot;index&quot;:null}" fill="#ffffff" stroke="none"/><path d="M190.76344,184.41082c0,-0.87893 0.7125,-1.59145 1.59144,-1.59145c0.87893,0 1.59145,0.71251 1.59145,1.59145" data-paper-data="{&quot;index&quot;:null}" fill="none" stroke="#000000"/><path d="M187.52976,184.4108c0,-2.63267 1.9618,-4.76687 4.82511,-4.76687c2.86332,0 4.8251,2.13422 4.8251,4.76689" data-paper-data="{&quot;index&quot;:null}" fill="none" stroke="#000000"/></g><g stroke="#000000" stroke-linecap="round"><path d="M190.85578,172.36448c0.12186,-0.84279 0.69033,-1.54185 1.54188,-1.54185c0.85155,0 1.62971,0.64194 1.54187,1.54185c-0.04451,0.45594 -0.09132,3.17943 -0.10266,6.048c-0.01134,2.86857 0.05816,5.59204 0.10266,6.04796c0.08785,0.89991 -0.69032,1.54187 -1.54187,1.54187c-0.85155,0 -1.42002,-0.69908 -1.54188,-1.54187c-0.06233,-0.43116 -0.0931,-3.16733 -0.09231,-6.04796c0.00078,-2.88062 0.02998,-5.61684 0.09231,-6.048z" fill-opacity="0.99608" fill="#9e9e9e"/><path d="M193.83728,179.80159c0.01017,2.35235 0.06497,4.27697 0.10223,4.65879c0.08785,0.89991 -0.69033,1.54188 -1.54187,1.54188c-0.85155,0 -1.42002,-0.69908 -1.54188,-1.54188c-0.05225,-0.36137 -0.08231,-2.29467 -0.09023,-4.65879" fill="url(#color-2)"/></g><g stroke-linecap="butt"><path d="M197.17997,184.41082c0,2.63266 -1.96179,4.76689 -4.82511,4.76689c-2.86332,0 -4.82512,-2.13419 -4.82512,-4.76687l3.23368,-0.00002c0,0.87893 0.7125,1.59144 1.59144,1.59144c0.87893,0 1.59145,-0.71251 1.59145,-1.59144z" data-paper-data="{&quot;index&quot;:null}" fill="#ffffff" stroke="none"/><path d="M193.94632,184.41082c0,0.87893 -0.71252,1.59144 -1.59145,1.59144c-0.87893,0 -1.59144,-0.71251 -1.59144,-1.59144" data-paper-data="{&quot;index&quot;:null}" fill="none" stroke="#000000"/><path d="M197.17997,184.41082c0,2.63266 -1.96179,4.76689 -4.82511,4.76689c-2.86332,0 -4.82512,-2.13419 -4.82512,-4.76687" data-paper-data="{&quot;index&quot;:null}" fill="none" stroke="#000000"/></g></g><g data-paper-data="{&quot;index&quot;:null}"><g data-paper-data="{&quot;index&quot;:null}" stroke-linecap="butt"><path d="M217.76135,184.41078c0,-0.87893 -0.7125,-1.59146 -1.59144,-1.59146c-0.87893,0 -1.59144,0.71252 -1.59144,1.59146l-3.23369,-0.00003c0,-2.63267 1.96182,-4.76687 4.82513,-4.76687c2.86332,0 4.8251,2.13423 4.8251,4.7669z" data-paper-data="{&quot;index&quot;:null}" fill="#ffffff" stroke="none"/><path d="M214.57848,184.41078c0,-0.87893 0.7125,-1.59146 1.59144,-1.59146c0.87893,0 1.59144,0.71252 1.59144,1.59146" data-paper-data="{&quot;index&quot;:null}" fill="none" stroke="#000000"/><path d="M211.34479,184.4107c0,-2.63267 1.96181,-4.76686 4.82513,-4.76686c2.86332,0 4.82511,2.13422 4.82511,4.76689" data-paper-data="{&quot;index&quot;:null}" fill="none" stroke="#000000"/></g><g stroke="#000000" stroke-linecap="round"><path d="M214.67081,172.36439c0.12186,-0.84279 0.69032,-1.54187 1.54187,-1.54187c0.85155,0 1.62972,0.64194 1.54188,1.54187c-0.04451,0.45594 -0.09132,3.17941 -0.10266,6.04798c-0.01134,2.86857 0.05816,5.59204 0.10266,6.04797c0.08785,0.89991 -0.69033,1.54187 -1.54188,1.54187c-0.85155,0 -1.42002,-0.69908 -1.54187,-1.54187c-0.06233,-0.43116 -0.09311,-3.16735 -0.09232,-6.04797c0.00078,-2.88062 0.02999,-5.61682 0.09232,-6.04798z" fill-opacity="0.99608" fill="#9e9e9e"/><path d="M217.65233,179.80148c0.01017,2.35235 0.06498,4.27696 0.10223,4.65878c0.08785,0.89991 -0.69033,1.54188 -1.54188,1.54188c-0.85155,0 -1.42002,-0.69909 -1.54187,-1.54188c-0.05225,-0.36137 -0.08232,-2.29466 -0.09023,-4.65878" fill="url(#color-3)"/></g><g stroke-linecap="butt"><path d="M220.99501,184.41078c0,2.63266 -1.96179,4.76688 -4.8251,4.76688c-2.86332,0 -4.82513,-2.13419 -4.82513,-4.76686l3.23369,-0.00002c0,0.87893 0.7125,1.59144 1.59144,1.59144c0.87893,0 1.59144,-0.71251 1.59144,-1.59144z" data-paper-data="{&quot;index&quot;:null}" fill="#ffffff" stroke="none"/><path d="M217.76135,184.41078c0,0.87893 -0.7125,1.59144 -1.59144,1.59144c-0.87893,0 -1.59144,-0.71251 -1.59144,-1.59144" data-paper-data="{&quot;index&quot;:null}" fill="none" stroke="#000000"/><path d="M220.99501,184.41078c0,2.63266 -1.96179,4.76688 -4.8251,4.76688c-2.86332,0 -4.82513,-2.13419 -4.82513,-4.76686" data-paper-data="{&quot;index&quot;:null}" fill="none" stroke="#000000"/></g></g><g data-paper-data="{&quot;index&quot;:null}" stroke-linecap="butt"><g data-paper-data="{&quot;index&quot;:null}"><path d="M241.57636,184.41068c0,-0.87893 -0.7125,-1.59146 -1.59144,-1.59146c-0.87893,0 -1.59144,0.71252 -1.59144,1.59146l-3.23368,-0.00003c0,-2.63267 1.96182,-4.76687 4.82513,-4.76687c2.86332,0 4.82509,2.13423 4.82509,4.7669z" data-paper-data="{&quot;index&quot;:null}" fill="#ffffff" stroke="none"/><path d="M238.3935,184.41068c0,-0.87893 0.71251,-1.59146 1.59144,-1.59146c0.87893,0 1.59144,0.71252 1.59144,1.59146" data-paper-data="{&quot;index&quot;:null}" fill="none" stroke="#000000"/><path d="M235.15982,184.41061c0,-2.63267 1.96181,-4.76686 4.82513,-4.76686c2.86332,0 4.8251,2.13422 4.8251,4.76689" data-paper-data="{&quot;index&quot;:null}" fill="none" stroke="#000000"/></g><g stroke="#000000"><path d="M241.53078,184.43342c0,0.86634 -0.70231,1.56864 -1.56866,1.56864c-0.86634,0 -1.56864,-0.7023 -1.56864,-1.56864v-12.04241c0,-0.86634 0.7023,-1.56864 1.56864,-1.56864c0.86634,0 1.56866,0.7023 1.56866,1.56864z" fill="#9e9e9e"/><path d="M241.53078,179.31895v5.11447c0,0.86634 -0.70231,1.56864 -1.56866,1.56864c-0.86634,0 -1.56864,-0.7023 -1.56864,-1.56864v-5.11447" fill="url(#color-4)"/></g><g><path d="M244.81003,184.41068c0,2.63266 -1.96179,4.76687 -4.82511,4.76687c-2.86332,0 -4.82512,-2.13419 -4.82512,-4.76687l3.23368,-0.00001c0,0.87893 0.71251,1.59144 1.59144,1.59144c0.87893,0 1.59145,-0.7125 1.59145,-1.59144z" data-paper-data="{&quot;index&quot;:null}" fill="#ffffff" stroke="none"/><path d="M241.57636,184.41068c0,0.87893 -0.7125,1.59144 -1.59144,1.59144c-0.87893,0 -1.59144,-0.7125 -1.59144,-1.59144" data-paper-data="{&quot;index&quot;:null}" fill="none" stroke="#000000"/><path d="M244.81003,184.41068c0,2.63266 -1.96179,4.76687 -4.82511,4.76687c-2.86332,0 -4.82512,-2.13419 -4.82512,-4.76687" data-paper-data="{&quot;index&quot;:null}" fill="none" stroke="#000000"/></g></g><g data-paper-data="{&quot;index&quot;:null}"><g data-paper-data="{&quot;index&quot;:null}" stroke-linecap="butt"><path d="M258.97488,184.41058c0,-2.63265 1.96179,-4.76689 4.82509,-4.76689c2.86332,0 4.82513,2.13419 4.82513,4.76687l-3.23368,0.00002c0,-0.87893 -0.71251,-1.59145 -1.59144,-1.59145c-0.87893,0 -1.59144,0.71252 -1.59144,1.59145z" data-paper-data="{&quot;index&quot;:null}" fill="#ffffff" stroke="none"/><path d="M262.20853,184.41058c0,-0.87893 0.7125,-1.59145 1.59145,-1.59145c0.87893,0 1.59144,0.71252 1.59144,1.59145" data-paper-data="{&quot;index&quot;:null}" fill="none" stroke="#000000"/><path d="M258.97486,184.41058c0,-2.63265 1.9618,-4.76689 4.82509,-4.76689c2.86332,0 4.82513,2.13419 4.82513,4.76687" data-paper-data="{&quot;index&quot;:null}" fill="none" stroke="#000000"/></g><g stroke="#000000" stroke-linecap="round"><path d="M265.52688,178.41219c0.00078,2.88062 -0.02999,5.61683 -0.09231,6.04799c-0.12185,0.84279 -0.69033,1.54187 -1.54187,1.54187c-0.85156,0 -1.62973,-0.64195 -1.54188,-1.54187c0.04449,-0.45592 0.114,-3.17942 0.10266,-6.04799c-0.01134,-2.86857 -0.05814,-5.59204 -0.10266,-6.04798c-0.08784,-0.89992 0.69032,-1.54186 1.54188,-1.54186c0.85156,0 1.42002,0.69907 1.54187,1.54186c0.06233,0.43116 0.09153,3.16736 0.09231,6.04798z" fill-opacity="0.99608" fill="#9e9e9e"/><path d="M265.52478,179.80131c-0.00791,2.36412 -0.03797,4.29742 -0.09023,4.65878c-0.12185,0.84279 -0.69032,1.54187 -1.54186,1.54187c-0.85156,0 -1.62973,-0.64195 -1.54188,-1.54187c0.03726,-0.38182 0.09207,-2.30643 0.10222,-4.65878" fill="url(#color-5)"/></g><g stroke-linecap="butt"><path d="M262.20854,184.41058c0,0.87893 0.7125,1.59144 1.59144,1.59144c0.87893,0 1.59144,-0.7125 1.59144,-1.59144l3.23368,0.00002c0,2.63267 -1.96182,4.76686 -4.82513,4.76686c-2.86332,0 -4.82509,-2.13421 -4.82509,-4.76688z" data-paper-data="{&quot;index&quot;:null}" fill="#ffffff" stroke="none"/><path d="M265.39142,184.41058c0,0.87893 -0.71251,1.59144 -1.59144,1.59144c-0.87893,0 -1.59144,-0.7125 -1.59144,-1.59144" data-paper-data="{&quot;index&quot;:null}" fill="none" stroke="#000000"/><path d="M268.62508,184.41058c0,2.63267 -1.96182,4.76685 -4.82513,4.76685c-2.86332,0 -4.82509,-2.13422 -4.82509,-4.76687" data-paper-data="{&quot;index&quot;:null}" fill="none" stroke="#000000"/></g></g><g data-paper-data="{&quot;index&quot;:null}"><g data-paper-data="{&quot;index&quot;:null}" stroke-linecap="butt"><path d="M282.78991,184.41049c0,-2.63265 1.96179,-4.76688 4.82511,-4.76688c2.86332,0 4.82512,2.13419 4.82512,4.76687l-3.23367,0.00003c0,-0.87893 -0.71251,-1.59146 -1.59144,-1.59146c-0.87893,0 -1.59145,0.71253 -1.59145,1.59146z" data-paper-data="{&quot;index&quot;:null}" fill="#ffffff" stroke="none"/><path d="M286.02356,184.41049c0,-0.87893 0.71251,-1.59145 1.59145,-1.59145c0.87893,0 1.59144,0.71252 1.59144,1.59145" data-paper-data="{&quot;index&quot;:null}" fill="none" stroke="#000000"/><path d="M282.78988,184.41049c0,-2.63265 1.96179,-4.76688 4.82511,-4.76688c2.86332,0 4.82512,2.13419 4.82512,4.76687" data-paper-data="{&quot;index&quot;:null}" fill="none" stroke="#000000"/></g><g stroke="#000000" stroke-linecap="round"><path d="M289.34192,178.4121c0.00078,2.88062 -0.02999,5.61683 -0.09232,6.04798c-0.12185,0.84279 -0.69032,1.54187 -1.54185,1.54187c-0.85156,0 -1.62973,-0.64196 -1.54188,-1.54187c0.04449,-0.45592 0.114,-3.1794 0.10266,-6.04798c-0.01134,-2.86858 -0.05814,-5.59205 -0.10266,-6.04799c-0.08784,-0.89992 0.69032,-1.54187 1.54188,-1.54187c0.85156,0 1.42001,0.69907 1.54185,1.54187c0.06233,0.43116 0.09154,3.16737 0.09232,6.04799z" fill-opacity="0.99608" fill="#9e9e9e"/><path d="M289.33982,179.80126c-0.00791,2.36412 -0.03797,4.29742 -0.09023,4.6588c-0.12185,0.84279 -0.69032,1.54187 -1.54187,1.54187c-0.85156,0 -1.62973,-0.64195 -1.54188,-1.54187c0.03726,-0.38182 0.09208,-2.30645 0.10223,-4.6588" fill="url(#color-6)"/></g><g stroke-linecap="butt"><path d="M286.02357,184.41049c0,0.87893 0.71251,1.59145 1.59145,1.59145c0.87893,0 1.59144,-0.71251 1.59144,-1.59145l3.23367,0.00003c0,2.63267 -1.9618,4.76686 -4.82512,4.76686c-2.86332,0 -4.82511,-2.13422 -4.82511,-4.76687z" data-paper-data="{&quot;index&quot;:null}" fill="#ffffff" stroke="none"/><path d="M289.20645,184.41049c0,0.87893 -0.71251,1.59145 -1.59144,1.59145c-0.87893,0 -1.59145,-0.71251 -1.59145,-1.59145" data-paper-data="{&quot;index&quot;:null}" fill="none" stroke="#000000"/><path d="M292.44013,184.41051c0,2.63267 -1.96181,4.76686 -4.82513,4.76686c-2.86332,0 -4.8251,-2.13422 -4.8251,-4.76687" data-paper-data="{&quot;index&quot;:null}" fill="none" stroke="#000000"/></g></g><g data-paper-data="{&quot;index&quot;:null}"><g data-paper-data="{&quot;index&quot;:null}" stroke-linecap="butt"><path d="M306.60495,184.41049c0,-2.63265 1.96179,-4.76688 4.82511,-4.76688c2.86332,0 4.82513,2.13419 4.82513,4.76687l-3.23368,0.00003c0,-0.87893 -0.7125,-1.59146 -1.59143,-1.59146c-0.87893,0 -1.59145,0.71253 -1.59145,1.59146z" data-paper-data="{&quot;index&quot;:null}" fill="#ffffff" stroke="none"/><path d="M309.83861,184.41049c0,-0.87893 0.71251,-1.59145 1.59145,-1.59145c0.87893,0 1.59144,0.71252 1.59144,1.59145" data-paper-data="{&quot;index&quot;:null}" fill="none" stroke="#000000"/><path d="M306.60494,184.41049c0,-2.63265 1.96179,-4.76688 4.82511,-4.76688c2.86332,0 4.82513,2.13419 4.82513,4.76687" data-paper-data="{&quot;index&quot;:null}" fill="none" stroke="#000000"/></g><g stroke="#000000" stroke-linecap="round"><path d="M313.15696,178.4121c0.00078,2.88062 -0.02999,5.61683 -0.09231,6.04798c-0.12185,0.84279 -0.69033,1.54187 -1.54186,1.54187c-0.85156,0 -1.62973,-0.64196 -1.54188,-1.54187c0.04449,-0.45592 0.114,-3.1794 0.10266,-6.04798c-0.01134,-2.86858 -0.05814,-5.59205 -0.10266,-6.04799c-0.08784,-0.89992 0.69032,-1.54187 1.54188,-1.54187c0.85156,0 1.42001,0.69907 1.54186,1.54187c0.06233,0.43116 0.09153,3.16737 0.09231,6.04799z" fill-opacity="0.99608" fill="#9e9e9e"/><path d="M313.15485,179.80126c-0.00791,2.36412 -0.03796,4.29742 -0.09022,4.6588c-0.12185,0.84279 -0.69033,1.54187 -1.54187,1.54187c-0.85156,0 -1.62973,-0.64195 -1.54188,-1.54187c0.03726,-0.38182 0.09208,-2.30645 0.10223,-4.6588" fill="url(#color-7)"/></g><g stroke-linecap="butt"><path d="M309.83861,184.41049c0,0.87893 0.71251,1.59145 1.59145,1.59145c0.87893,0 1.59143,-0.71251 1.59143,-1.59145l3.23368,0.00003c0,2.63267 -1.96182,4.76686 -4.82513,4.76686c-2.86332,0 -4.82511,-2.13422 -4.82511,-4.76687z" data-paper-data="{&quot;index&quot;:null}" fill="#ffffff" stroke="none"/><path d="M313.02149,184.41049c0,0.87893 -0.71249,1.59145 -1.59143,1.59145c-0.87893,0 -1.59145,-0.71251 -1.59145,-1.59145" data-paper-data="{&quot;index&quot;:null}" fill="none" stroke="#000000"/><path d="M316.25517,184.41051c0,2.63267 -1.96182,4.76686 -4.82513,4.76686c-2.86332,0 -4.82511,-2.13422 -4.82511,-4.76687" data-paper-data="{&quot;index&quot;:null}" fill="none" stroke="#000000"/></g></g></g></g></g></svg>